<svg width="221" height="63" viewBox="0 0 221 63" fill="none" xmlns="http://www.w3.org/2000/svg">
<path d="M90.1582 31.1484V35.4209H81.1689V44H76.418V21.0996H92.0381V25.3721H81.1689V31.1484H90.1582ZM99.6109 19.3906V44H95.2701V19.3906H99.6109ZM110.841 26.2949C112.527 26.2949 114.065 26.7051 115.455 27.5254C116.845 28.3229 117.962 29.4167 118.805 30.8066C119.671 32.1738 120.104 33.7119 120.104 35.4209C120.104 37.1299 119.671 38.668 118.805 40.0352C117.962 41.4023 116.845 42.4961 115.455 43.3164C114.065 44.1139 112.527 44.5127 110.841 44.5127C109.178 44.5127 107.64 44.1139 106.227 43.3164C104.837 42.4961 103.72 41.4023 102.877 40.0352C102.034 38.668 101.612 37.1299 101.612 35.4209C101.612 33.7119 102.034 32.1738 102.877 30.8066C103.72 29.4167 104.837 28.3229 106.227 27.5254C107.64 26.7051 109.178 26.2949 110.841 26.2949ZM110.841 30.499C110.021 30.499 109.257 30.6927 108.551 31.0801C107.845 31.4674 107.275 32.0257 106.842 32.7549C106.432 33.484 106.227 34.3727 106.227 35.4209C106.227 36.4691 106.432 37.3577 106.842 38.0869C107.275 38.8161 107.845 39.3743 108.551 39.7617C109.257 40.1263 110.021 40.3086 110.841 40.3086C111.661 40.3086 112.425 40.1263 113.131 39.7617C113.837 39.3743 114.407 38.8161 114.84 38.0869C115.273 37.3577 115.489 36.4691 115.489 35.4209C115.489 34.3727 115.273 33.484 114.84 32.7549C114.407 32.0257 113.837 31.4674 113.131 31.0801C112.425 30.6927 111.661 30.499 110.841 30.499ZM145.758 26.7393L139.776 44H136.632L132.598 32.8232L128.565 44H125.387L119.439 26.7393H124.156L127.335 36.959L131.06 26.7393H134.171L137.862 36.959L141.041 26.7393H145.758ZM162.373 26.2949C164.059 26.2949 165.506 26.6595 166.714 27.3887C167.944 28.1178 168.879 29.1318 169.517 30.4307C170.177 31.7067 170.508 33.1878 170.508 34.874V36.7197H157.998C158.226 37.8818 158.796 38.8161 159.707 39.5225C160.618 40.2288 161.735 40.582 163.057 40.582C164.31 40.582 165.449 40.3314 166.475 39.8301C167.5 39.3288 168.32 38.8161 168.936 38.292L168.901 42.3252C168.354 42.8037 167.534 43.2936 166.44 43.7949C165.369 44.2734 164.185 44.5127 162.886 44.5127C161.177 44.5127 159.616 44.1253 158.203 43.3506C156.813 42.5758 155.697 41.5163 154.854 40.1719C154.033 38.8275 153.623 37.2894 153.623 35.5576C153.623 33.8714 153.999 32.3333 154.751 30.9434C155.503 29.5534 156.54 28.4368 157.861 27.5938C159.183 26.7279 160.687 26.2949 162.373 26.2949ZM162.271 30.0889C161.2 30.0889 160.299 30.4193 159.57 31.0801C158.841 31.7409 158.34 32.6296 158.066 33.7461H166.338C166.247 32.5156 165.791 31.6042 164.971 31.0117C164.15 30.3965 163.25 30.0889 162.271 30.0889ZM175.107 26.7393L180.029 37.7451L184.814 26.7393H189.77L177.226 52.2031H172.304L177.5 42.7354L170.048 26.7393H175.107ZM198.232 26.2949C199.918 26.2949 201.365 26.6595 202.572 27.3887C203.803 28.1178 204.737 29.1318 205.375 30.4307C206.036 31.7067 206.366 33.1878 206.366 34.874V36.7197H193.857C194.085 37.8818 194.654 38.8161 195.566 39.5225C196.477 40.2288 197.594 40.582 198.915 40.582C200.168 40.582 201.308 40.3314 202.333 39.8301C203.359 39.3288 204.179 38.8161 204.794 38.292L204.76 42.3252C204.213 42.8037 203.393 43.2936 202.299 43.7949C201.228 44.2734 200.043 44.5127 198.744 44.5127C197.035 44.5127 195.474 44.1253 194.062 43.3506C192.672 42.5758 191.555 41.5163 190.712 40.1719C189.892 38.8275 189.482 37.2894 189.482 35.5576C189.482 33.8714 189.858 32.3333 190.61 30.9434C191.362 29.5534 192.398 28.4368 193.72 27.5938C195.042 26.7279 196.545 26.2949 198.232 26.2949ZM198.129 30.0889C197.058 30.0889 196.158 30.4193 195.429 31.0801C194.7 31.7409 194.198 32.6296 193.925 33.7461H202.196C202.105 32.5156 201.65 31.6042 200.829 31.0117C200.009 30.3965 199.109 30.0889 198.129 30.0889ZM213.803 26.2949C214.873 26.2949 215.865 26.4544 216.776 26.7734C217.688 27.0924 218.394 27.457 218.895 27.8672V31.6953C218.348 31.3307 217.676 30.9775 216.879 30.6357C216.104 30.2939 215.295 30.123 214.452 30.123C213.632 30.123 212.982 30.3053 212.504 30.6699C212.025 31.0345 211.786 31.4674 211.786 31.9688C211.786 32.3333 211.923 32.6751 212.196 32.9941C212.47 33.2904 212.994 33.5524 213.768 33.7803L215.717 34.4297C218.337 35.2044 219.647 36.7197 219.647 38.9756C219.647 40.0465 219.34 41.0036 218.724 41.8467C218.132 42.667 217.323 43.3164 216.298 43.7949C215.295 44.2734 214.179 44.5127 212.948 44.5127C211.786 44.5127 210.658 44.3304 209.564 43.9658C208.471 43.6012 207.639 43.2025 207.069 42.7695V38.9756C207.502 39.2718 208.026 39.5566 208.641 39.8301C209.257 40.1035 209.895 40.3314 210.555 40.5137C211.216 40.6732 211.82 40.7529 212.367 40.7529C213.233 40.7529 213.894 40.6048 214.349 40.3086C214.828 39.9896 215.067 39.5452 215.067 38.9756C215.067 38.5426 214.873 38.2008 214.486 37.9502C214.099 37.6995 213.529 37.4489 212.777 37.1982L210.658 36.4463C209.336 36.0133 208.425 35.3981 207.924 34.6006C207.422 33.8031 207.172 32.8574 207.172 31.7637C207.172 30.6699 207.445 29.7243 207.992 28.9268C208.562 28.1064 209.348 27.4684 210.35 27.0127C211.353 26.5342 212.504 26.2949 213.803 26.2949Z" fill="black"/>
<path d="M0 20C0 8.9543 8.95431 0 20 0H43C54.0457 0 63 8.95431 63 20V43C63 54.0457 54.0457 63 43 63H20C8.9543 63 0 54.0457 0 43V20Z" fill="url(#paint0_linear_33_1290)"/>
<path fill-rule="evenodd" clip-rule="evenodd" d="M53.9335 18.2156H54V21.5H53.9335C51.9828 21.5 50.1088 20.6679 48.7091 19.1802L47.9324 18.3546C47.1545 17.5279 45.8961 17.6109 45.2146 18.5339L45.1315 18.6464C43.2476 21.198 39.7096 21.1739 37.8067 18.6988C37.1124 17.7957 35.8431 17.8182 35.1915 18.7006C33.3415 21.2063 29.8635 21.2441 27.9684 18.779L27.8864 18.6724C27.2056 17.7869 25.9562 17.8004 25.2915 18.7006C23.4415 21.2063 19.9635 21.2441 18.0684 18.779L17.9253 18.5929C17.2091 17.6613 15.912 17.6186 15.146 18.5014L14.7234 18.9884C13.3319 20.592 11.4 21.5 9.37957 21.5H9V18.2156H9.37957C10.5777 18.2156 11.7233 17.6772 12.5484 16.7263L12.971 16.2393C14.9692 13.9366 18.3524 14.048 20.2205 16.478L20.3636 16.6641C21.0444 17.5496 22.2938 17.5361 22.9585 16.6359C24.8085 14.1302 28.2865 14.0925 30.1816 16.5575L30.2636 16.6641C30.9444 17.5496 32.1938 17.5361 32.8585 16.6359C34.7217 14.1124 38.2204 14.1365 40.102 16.5839C40.8175 17.5147 42.1262 17.4922 42.7985 16.5817L42.8815 16.4692C44.6721 14.0441 47.9784 13.8259 50.0221 15.9982L50.7989 16.8238C51.6387 17.7164 52.7631 18.2156 53.9335 18.2156ZM53.9335 27.2156H54V30.5H53.9335C51.9828 30.5 50.1088 29.6679 48.7091 28.1802L47.9324 27.3546C47.1545 26.5279 45.8961 26.6109 45.2146 27.5339L45.1315 27.6464C43.2476 30.198 39.7096 30.1739 37.8067 27.6988C37.1124 26.7957 35.8431 26.8182 35.1915 27.7006C33.3415 30.2063 29.8635 30.2441 27.9684 27.779L27.8864 27.6724C27.2056 26.7869 25.9562 26.8004 25.2915 27.7006C23.4415 30.2063 19.9635 30.2441 18.0684 27.779L17.9253 27.5929C17.2091 26.6613 15.912 26.6186 15.146 27.5014L14.7234 27.9884C13.3319 29.592 11.4 30.5 9.37957 30.5H9V27.2156H9.37957C10.5777 27.2156 11.7233 26.6772 12.5484 25.7263L12.971 25.2393C14.9692 22.9366 18.3524 23.048 20.2205 25.478L20.3636 25.6641C21.0444 26.5496 22.2938 26.5361 22.9585 25.6359C24.8085 23.1302 28.2865 23.0925 30.1816 25.5575L30.2636 25.6641C30.9444 26.5496 32.1938 26.5361 32.8585 25.6359C34.7217 23.1124 38.2204 23.1365 40.102 25.5839C40.8175 26.5147 42.1262 26.4922 42.7985 25.5817L42.8815 25.4692C44.6721 23.0441 47.9784 22.8259 50.0221 24.9982L50.7989 25.8238C51.6387 26.7164 52.7631 27.2156 53.9335 27.2156ZM54 36.2156H53.9335C52.7631 36.2156 51.6387 35.7164 50.7989 34.8238L50.0221 33.9982C47.9784 31.8259 44.6721 32.0441 42.8815 34.4692L42.7985 34.5817C42.1262 35.4922 40.8175 35.5147 40.102 34.5839C38.2204 32.1365 34.7217 32.1124 32.8585 34.6359C32.1938 35.5361 30.9444 35.5496 30.2636 34.6641L30.1816 34.5575C28.2865 32.0925 24.8085 32.1302 22.9585 34.6359C22.2938 35.5361 21.0444 35.5496 20.3636 34.6641L20.2205 34.478C18.3524 32.048 14.9692 31.9366 12.971 34.2393L12.5484 34.7263C11.7233 35.6772 10.5777 36.2156 9.37957 36.2156H9V39.5H9.37957C11.4 39.5 13.3319 38.592 14.7234 36.9884L15.146 36.5014C15.912 35.6186 17.2091 35.6613 17.9253 36.5929L18.0684 36.779C19.9635 39.2441 23.4415 39.2063 25.2915 36.7006C25.9562 35.8004 27.2056 35.7869 27.8864 36.6724L27.9684 36.779C29.8635 39.2441 33.3415 39.2063 35.1915 36.7006C35.8431 35.8182 37.1124 35.7957 37.8067 36.6988C39.7096 39.174 43.2476 39.198 45.1315 36.6464L45.2146 36.5339C45.8961 35.6109 47.1545 35.5279 47.9324 36.3546L48.7091 37.1802C50.1088 38.6679 51.9828 39.5 53.9335 39.5H54V36.2156ZM53.9335 45.2156H54V48.5H53.9335C51.9828 48.5 50.1088 47.6679 48.7091 46.1802L47.9324 45.3546C47.1545 44.5279 45.8961 44.6109 45.2146 45.5339L45.1315 45.6464C43.2476 48.198 39.7096 48.174 37.8067 45.6988C37.1124 44.7957 35.8431 44.8182 35.1915 45.7006C33.3415 48.2063 29.8635 48.2441 27.9684 45.779L27.8864 45.6724C27.2056 44.7869 25.9562 44.8004 25.2915 45.7006C23.4415 48.2063 19.9635 48.2441 18.0684 45.779L17.9253 45.5929C17.2091 44.6613 15.912 44.6186 15.146 45.5014L14.7234 45.9884C13.3319 47.592 11.4 48.5 9.37957 48.5H9V45.2156H9.37957C10.5777 45.2156 11.7233 44.6772 12.5484 43.7263L12.971 43.2393C14.9692 40.9366 18.3524 41.048 20.2205 43.478L20.3636 43.6641C21.0444 44.5496 22.2938 44.5361 22.9585 43.6359C24.8085 41.1302 28.2865 41.0925 30.1816 43.5575L30.2636 43.6641C30.9444 44.5496 32.1938 44.5361 32.8585 43.6359C34.7217 41.1124 38.2204 41.1365 40.102 43.5839C40.8175 44.5147 42.1262 44.4922 42.7985 43.5817L42.8815 43.4692C44.6721 41.0441 47.9784 40.8259 50.0221 42.9982L50.7989 43.8238C51.6387 44.7164 52.7631 45.2156 53.9335 45.2156Z" fill="white"/>
<defs>
<linearGradient id="paint0_linear_33_1290" x1="31.5" y1="0" x2="31.5" y2="63" gradientUnits="userSpaceOnUse">
<stop stop-color="#A5D4FF"/>
<stop offset="1" stop-color="#5786FF"/>
</linearGradient>
</defs>
</svg>
