<svg width="192" height="192" viewBox="0 0 192 192" fill="none" xmlns="http://www.w3.org/2000/svg">
<path d="M0 60.9524C0 27.2893 27.2893 0 60.9524 0H131.048C164.711 0 192 27.2893 192 60.9524V131.048C192 164.711 164.711 192 131.048 192H60.9524C27.2893 192 0 164.711 0 131.048V60.9524Z" fill="url(#paint0_linear_148_1824)"/>
<path fill-rule="evenodd" clip-rule="evenodd" d="M164.369 55.5144H164.571V65.5238H164.369C158.424 65.5238 152.712 62.9879 148.447 58.4541L146.08 55.9378C143.709 53.4182 139.874 53.6712 137.797 56.4843L137.544 56.8272C131.802 64.6033 121.02 64.5301 115.221 56.987C113.105 54.2346 109.236 54.3031 107.25 56.9923C101.612 64.6287 91.0125 64.7438 85.2369 57.2313L84.9872 56.9064C82.9123 54.2076 79.1045 54.249 77.079 56.9923C71.4407 64.6287 60.8411 64.7438 55.0655 57.2313L54.6295 56.6641C52.4467 53.825 48.4938 53.6948 46.1592 56.3853L44.8715 57.8693C40.6305 62.7566 34.7429 65.5238 28.5854 65.5238H27.4286V55.5144H28.5854C32.2367 55.5144 35.728 53.8734 38.2429 50.9753L39.5306 49.4913C45.6203 42.4735 55.931 42.813 61.6245 50.2187L62.0605 50.7858C64.1353 53.4846 67.9431 53.4433 69.9686 50.6999C75.607 43.0635 86.2066 42.9484 91.9821 50.4609L92.2319 50.7858C94.3067 53.4846 98.1145 53.4433 100.14 50.6999C105.818 43.0094 116.481 43.0825 122.215 50.5415C124.396 53.3781 128.385 53.3096 130.433 50.5348L130.687 50.1919C136.144 42.801 146.22 42.1362 152.448 48.7563L154.816 51.2725C157.375 53.9928 160.802 55.5144 164.369 55.5144ZM164.369 82.9429H164.571V92.9524H164.369C158.424 92.9524 152.712 90.4164 148.447 85.8827L146.08 83.3664C143.709 80.8468 139.874 81.0998 137.797 83.9128L137.544 84.2557C131.802 92.0319 121.02 91.9587 115.221 84.4155C113.105 81.6632 109.236 81.7317 107.25 84.4208C101.612 92.0573 91.0125 92.1724 85.2369 84.6599L84.9872 84.335C82.9123 81.6362 79.1045 81.6775 77.079 84.4208C71.4407 92.0573 60.8411 92.1724 55.0655 84.6599L54.6295 84.0927C52.4467 81.2535 48.4938 81.1234 46.1592 83.8139L44.8715 85.2979C40.6305 90.1852 34.7429 92.9524 28.5854 92.9524H27.4286V82.9429H28.5854C32.2367 82.9429 35.728 81.302 38.2429 78.4039L39.5306 76.9198C45.6203 69.9021 55.931 70.2415 61.6245 77.6472L62.0605 78.2144C64.1353 80.9132 67.9431 80.8718 69.9686 78.1285C75.607 70.4921 86.2066 70.377 91.9821 77.8895L92.2319 78.2144C94.3067 80.9132 98.1145 80.8718 100.14 78.1285C105.818 70.4379 116.481 70.5111 122.215 77.9701C124.396 80.8066 128.385 80.7382 130.433 77.9634L130.687 77.6205C136.144 70.2295 146.22 69.5648 152.448 76.1848L154.816 78.7011C157.375 81.4214 160.802 82.9429 164.369 82.9429ZM164.571 110.371H164.369C160.802 110.371 157.375 108.85 154.816 106.13L152.448 103.613C146.22 96.9934 136.144 97.6581 130.687 105.049L130.433 105.392C128.385 108.167 124.396 108.235 122.215 105.399C116.481 97.9397 105.818 97.8665 100.14 105.557C98.1145 108.3 94.3067 108.342 92.2319 105.643L91.9821 105.318C86.2066 97.8056 75.607 97.9206 69.9686 105.557C67.9431 108.3 64.1353 108.342 62.0605 105.643L61.6245 105.076C55.931 97.6701 45.6203 97.3306 39.5306 104.348L38.2429 105.832C35.728 108.731 32.2367 110.371 28.5854 110.371H27.4286V120.381H28.5854C34.7429 120.381 40.6305 117.614 44.8715 112.726L46.1592 111.242C48.4938 108.552 52.4467 108.682 54.6295 111.521L55.0655 112.088C60.8411 119.601 71.4407 119.486 77.079 111.849C79.1045 109.106 82.9123 109.065 84.9872 111.764L85.2369 112.088C91.0125 119.601 101.612 119.486 107.25 111.849C109.236 109.16 113.105 109.092 115.221 111.844C121.02 119.387 131.802 119.46 137.544 111.684L137.797 111.341C139.874 108.528 143.709 108.275 146.08 110.795L148.447 113.311C152.712 117.845 158.424 120.381 164.369 120.381H164.571V110.371ZM164.369 137.8H164.571V147.81H164.369C158.424 147.81 152.712 145.274 148.447 140.74L146.08 138.224C143.709 135.704 139.874 135.957 137.797 138.77L137.544 139.113C131.802 146.889 121.02 146.816 115.221 139.273C113.105 136.52 109.236 136.589 107.25 139.278C101.612 146.914 91.0125 147.03 85.2369 139.517L84.9872 139.192C82.9123 136.493 79.1045 136.535 77.079 139.278C71.4407 146.914 60.8411 147.03 55.0655 139.517L54.6295 138.95C52.4467 136.111 48.4938 135.981 46.1592 138.671L44.8715 140.155C40.6305 145.042 34.7429 147.81 28.5854 147.81H27.4286V137.8H28.5854C32.2367 137.8 35.728 136.159 38.2429 133.261L39.5306 131.777C45.6203 124.759 55.931 125.099 61.6245 132.504L62.0605 133.072C64.1353 135.77 67.9431 135.729 69.9686 132.986C75.607 125.349 86.2066 125.234 91.9821 132.747L92.2319 133.072C94.3067 135.77 98.1145 135.729 100.14 132.986C105.818 125.295 116.481 125.368 122.215 132.827C124.396 135.664 128.385 135.595 130.433 132.821L130.687 132.478C136.144 125.087 146.22 124.422 152.448 131.042L154.816 133.558C157.375 136.279 160.802 137.8 164.369 137.8Z" fill="white"/>
<defs>
<linearGradient id="paint0_linear_148_1824" x1="96" y1="0" x2="96" y2="192" gradientUnits="userSpaceOnUse">
<stop stop-color="#A5D4FF"/>
<stop offset="1" stop-color="#5786FF"/>
</linearGradient>
</defs>
</svg>
