<svg width="192" height="192" viewBox="0 0 192 192" fill="none" xmlns="http://www.w3.org/2000/svg">
<path d="M0 60.9524C0 27.2893 27.2893 0 60.9524 0H131.048C164.711 0 192 27.2893 192 60.9524V131.048C192 164.711 164.711 192 131.048 192H60.9524C27.2893 192 0 164.711 0 131.048V60.9524Z" fill="url(#paint0_linear_148_1848)"/>
<path fill-rule="evenodd" clip-rule="evenodd" d="M33.1715 37.4492L46.5282 47.8841C47.4219 48.5824 48.0852 49.1041 48.585 49.5267C48.5501 49.77 48.5313 50.0229 48.5313 50.2857C48.5313 50.5485 48.5501 50.8014 48.585 51.0448C48.0852 51.4674 47.4219 51.989 46.5281 52.6873L39.3196 58.319L39.1675 58.4378C37.8841 59.4401 36.673 60.386 35.811 61.2857C34.8598 62.2787 33.9028 63.6482 33.9028 65.5238C33.9028 67.3994 34.8598 68.769 35.811 69.7619C36.673 70.6617 37.8841 71.6075 39.1675 72.6098L39.3196 72.7286L46.5282 78.3603C47.4219 79.0586 48.0852 79.5802 48.585 80.0029C48.5501 80.2462 48.5313 80.4991 48.5313 80.7619C48.5313 81.0247 48.5501 81.2776 48.585 81.5209C48.0852 81.9436 47.4219 82.4652 46.5281 83.1635L39.3196 88.7952L39.1675 88.914L39.1672 88.9142C37.8839 89.9164 36.6729 90.8622 35.811 91.7619C34.8598 92.7548 33.9028 94.1244 33.9028 96C33.9028 97.8756 34.8598 99.2452 35.811 100.238C36.673 101.138 37.8842 102.084 39.1677 103.086L46.5282 108.837C47.4219 109.535 48.0852 110.056 48.585 110.479C48.5501 110.722 48.5313 110.975 48.5313 111.238C48.5313 111.501 48.5501 111.754 48.585 111.997C48.0852 112.42 47.4219 112.941 46.5281 113.64L39.1675 119.39C37.8841 120.392 36.673 121.338 35.811 122.238C34.8598 123.231 33.9028 124.601 33.9028 126.476C33.9028 128.352 34.8598 129.721 35.811 130.714C36.673 131.614 37.8841 132.56 39.1676 133.562L46.5282 139.313C47.4219 140.011 48.0852 140.533 48.585 140.955C48.5501 141.199 48.5313 141.451 48.5313 141.714C48.5313 141.977 48.5501 142.23 48.585 142.473C48.0852 142.896 47.4219 143.418 46.5281 144.116L33.1715 154.551L36.924 159.354L50.4327 148.8C51.017 148.344 51.5862 147.899 52.1144 147.466C52.6425 147.899 53.2118 148.344 53.796 148.8L64.4209 157.101L66.1811 159.354L66.7429 158.915L67.3048 159.354L69.0649 157.101L79.6898 148.8C80.2741 148.344 80.8433 147.899 81.3715 147.466C81.8996 147.899 82.4689 148.344 83.0531 148.8L93.6783 157.101L95.4383 159.354L96.0001 158.915L96.5619 159.354L98.3218 157.101L108.947 148.8C109.531 148.344 110.101 147.899 110.629 147.466C111.157 147.899 111.726 148.344 112.31 148.8L122.935 157.101L124.695 159.354L125.257 158.915L125.819 159.354L127.579 157.101L138.204 148.8C138.788 148.344 139.358 147.899 139.886 147.466C140.414 147.899 140.983 148.344 141.568 148.8L155.076 159.354L158.829 154.551L145.472 144.116C144.578 143.418 143.915 142.896 143.415 142.473C143.45 142.23 143.469 141.977 143.469 141.714C143.469 141.451 143.45 141.199 143.415 140.955C143.915 140.533 144.578 140.011 145.472 139.313L152.833 133.562C154.116 132.56 155.327 131.614 156.189 130.714C157.14 129.721 158.097 128.352 158.097 126.476C158.097 124.601 157.14 123.231 156.189 122.238C155.327 121.338 154.116 120.392 152.833 119.39L145.472 113.64C144.578 112.941 143.915 112.42 143.415 111.997C143.45 111.754 143.469 111.501 143.469 111.238C143.469 110.975 143.45 110.722 143.415 110.479C143.915 110.057 144.578 109.535 145.472 108.837L152.833 103.086C154.116 102.084 155.327 101.138 156.189 100.238C157.14 99.2452 158.097 97.8756 158.097 96C158.097 94.1244 157.14 92.7548 156.189 91.7619C155.327 90.8622 154.116 89.9164 152.833 88.9142L152.833 88.914L152.681 88.7952L145.472 83.1635C144.578 82.4652 143.915 81.9435 143.415 81.5208C143.45 81.2775 143.469 81.0247 143.469 80.7619C143.469 80.4991 143.45 80.2463 143.415 80.003C143.915 79.5803 144.578 79.0587 145.472 78.3603L152.681 72.7286L152.833 72.6098C154.116 71.6075 155.327 70.6617 156.189 69.7619C157.14 68.769 158.097 67.3994 158.097 65.5238C158.097 63.6482 157.14 62.2787 156.189 61.2857C155.327 60.386 154.116 59.4402 152.833 58.4379L152.833 58.4378L152.681 58.319L145.472 52.6873C144.578 51.989 143.915 51.4673 143.415 51.0446C143.45 50.8014 143.469 50.5485 143.469 50.2857C143.469 50.0229 143.45 49.7701 143.415 49.5268C143.915 49.1042 144.578 48.5825 145.472 47.8841L158.829 37.4492L155.076 32.646L141.72 43.0809L141.568 43.1997C140.983 43.656 140.414 44.1006 139.886 44.5345C139.358 44.1006 138.788 43.656 138.204 43.1997L138.052 43.0809L127.579 34.8991L125.819 32.646L125.257 33.085L124.695 32.646L122.935 34.8991L112.462 43.0809L112.31 43.1997L112.31 43.1998C111.726 43.656 111.157 44.1006 110.629 44.5344C110.101 44.1006 109.531 43.656 108.947 43.1997L108.795 43.0809L98.3219 34.8988L96.5619 32.646L96.0001 33.0849L95.4383 32.646L93.6783 34.8988L83.2052 43.0809L83.0532 43.1997C82.4689 43.656 81.8996 44.1006 81.3715 44.5344C80.8437 44.1009 80.2748 43.6566 79.691 43.2006L79.6902 43.2L79.6898 43.1997L79.5377 43.0809L69.065 34.8991L67.3048 32.646L66.7429 33.085L66.1811 32.646L64.4209 34.8991L53.9481 43.0809L53.7961 43.1997L53.796 43.1997L53.796 43.1997L53.7959 43.1998L53.7952 43.2003C53.2113 43.6564 52.6423 44.1008 52.1144 44.5344C51.5862 44.1006 51.0169 43.656 50.4327 43.1997L50.2806 43.0809L36.924 32.646L33.1715 37.4492ZM136.357 49.5268C135.857 49.1042 135.193 48.5825 134.3 47.8841L125.257 40.8198L116.215 47.8841C115.321 48.5824 114.658 49.1041 114.158 49.5267C114.193 49.77 114.212 50.0229 114.212 50.2857C114.212 50.5486 114.193 50.8014 114.158 51.0448C114.658 51.4674 115.321 51.989 116.215 52.6873L123.423 58.319L123.576 58.4378L123.576 58.438C124.16 58.8942 124.729 59.3387 125.257 59.7725C125.785 59.3387 126.354 58.8942 126.939 58.438L126.939 58.4378L127.091 58.319L134.3 52.6873C135.193 51.989 135.857 51.4673 136.357 51.0446C136.322 50.8014 136.303 50.5485 136.303 50.2857C136.303 50.0229 136.322 49.7701 136.357 49.5268ZM139.886 56.037C139.358 56.4708 138.788 56.9155 138.204 57.3718L138.052 57.4905L130.843 63.1222C129.95 63.8205 129.286 64.3422 128.787 64.7648C128.821 65.0081 128.84 65.261 128.84 65.5238C128.84 65.7866 128.821 66.0395 128.787 66.2828C129.286 66.7055 129.95 67.2271 130.843 67.9254L138.052 73.5571L138.204 73.6759L138.204 73.6759L138.205 73.6762L138.205 73.6763L138.205 73.6766C138.789 74.1327 139.358 74.577 139.886 75.0107C140.414 74.5768 140.983 74.1322 141.568 73.6759L141.72 73.5571L148.928 67.9254C150.419 66.7607 151.269 66.0874 151.788 65.5454L151.808 65.5238L151.788 65.5022C151.269 64.9603 150.419 64.2869 148.928 63.1222L141.72 57.4905L141.568 57.3718C140.983 56.9155 140.414 56.4708 139.886 56.037ZM136.357 80.003C135.857 79.5803 135.193 79.0587 134.3 78.3603L127.091 72.7286L126.939 72.6098C126.355 72.1535 125.785 71.709 125.257 71.2751C124.729 71.709 124.16 72.1535 123.576 72.6098L123.423 72.7286L116.215 78.3603C115.321 79.0586 114.658 79.5802 114.158 80.0029C114.193 80.2462 114.212 80.4991 114.212 80.7619C114.212 81.0247 114.193 81.2776 114.158 81.521C114.658 81.9436 115.321 82.4652 116.215 83.1635L123.423 88.7952L123.576 88.914L123.576 88.9143C124.16 89.3705 124.729 89.8149 125.257 90.2487C125.785 89.8151 126.354 89.3708 126.938 88.9148L126.938 88.9143L126.938 88.9143L126.939 88.9141L126.939 88.914L127.091 88.7952L134.3 83.1635C135.193 82.4652 135.857 81.9435 136.357 81.5208C136.322 81.2775 136.303 81.0247 136.303 80.7619C136.303 80.4991 136.322 80.2463 136.357 80.003ZM139.886 86.5132C139.358 86.947 138.788 87.3916 138.204 87.8479L138.204 87.8481L138.052 87.9667L130.843 93.5984C129.95 94.2967 129.286 94.8183 128.787 95.241C128.821 95.4843 128.84 95.7372 128.84 96C128.84 96.2628 128.821 96.5157 128.787 96.759C129.286 97.1817 129.95 97.7033 130.843 98.4016L138.204 104.152L138.204 104.152C138.788 104.608 139.358 105.053 139.886 105.487C140.414 105.053 140.983 104.608 141.567 104.152L141.568 104.152L148.928 98.4016C150.419 97.2369 151.269 96.5636 151.788 96.0216L151.808 96L151.788 95.9784C151.269 95.4364 150.419 94.7631 148.928 93.5984L141.72 87.9667L141.568 87.8481C140.983 87.3917 140.414 86.9471 139.886 86.5132ZM136.357 110.479C135.857 110.057 135.193 109.535 134.3 108.837L126.939 103.086L126.939 103.086C126.355 102.63 125.785 102.185 125.257 101.751C124.729 102.185 124.16 102.63 123.576 103.086L123.575 103.086L116.215 108.837C115.321 109.535 114.658 110.056 114.158 110.479C114.193 110.722 114.212 110.975 114.212 111.238C114.212 111.501 114.193 111.754 114.158 111.997C114.658 112.42 115.321 112.941 116.215 113.64L123.576 119.39L123.577 119.391C124.161 119.847 124.729 120.291 125.257 120.725C125.785 120.291 126.354 119.847 126.938 119.391L126.939 119.39L134.3 113.64C135.193 112.941 135.857 112.42 136.357 111.997C136.322 111.754 136.303 111.501 136.303 111.238C136.303 110.975 136.322 110.722 136.357 110.479ZM139.886 116.989C139.358 117.423 138.788 117.868 138.204 118.324L138.204 118.324L130.843 124.075C129.95 124.773 129.286 125.295 128.787 125.717C128.821 125.96 128.84 126.213 128.84 126.476C128.84 126.739 128.821 126.992 128.787 127.235C129.286 127.658 129.95 128.18 130.843 128.878L138.204 134.628C138.788 135.084 139.358 135.529 139.886 135.963C140.414 135.529 140.984 135.084 141.568 134.628L148.928 128.878C150.419 127.713 151.269 127.04 151.788 126.498L151.808 126.476L151.788 126.455C151.269 125.913 150.419 125.239 148.928 124.075L141.568 118.324C140.983 117.868 140.414 117.423 139.886 116.989ZM136.357 140.955C135.857 140.533 135.193 140.011 134.3 139.313L126.939 133.562L126.939 133.562C126.355 133.106 125.785 132.661 125.257 132.228C124.729 132.661 124.16 133.106 123.576 133.562L123.575 133.562L116.215 139.313C115.321 140.011 114.658 140.533 114.158 140.955C114.193 141.199 114.212 141.451 114.212 141.714C114.212 141.977 114.193 142.23 114.158 142.473C114.658 142.896 115.321 143.418 116.215 144.116L125.257 151.18L134.3 144.116C135.193 143.418 135.857 142.896 136.357 142.473C136.322 142.23 136.303 141.977 136.303 141.714C136.303 141.451 136.322 141.199 136.357 140.955ZM107.046 141.714C107.046 141.451 107.064 141.199 107.099 140.955C106.6 140.533 105.936 140.011 105.042 139.313L97.6819 133.562C97.0976 133.106 96.5283 132.661 96.0001 132.227C95.4719 132.661 94.9026 133.106 94.3183 133.562L86.9577 139.313C86.0639 140.011 85.4006 140.533 84.9008 140.955C84.9357 141.199 84.9545 141.451 84.9545 141.714C84.9545 141.977 84.9357 142.23 84.9008 142.473C85.4006 142.896 86.0639 143.418 86.9577 144.116L96.0001 151.18L105.042 144.116C105.936 143.418 106.6 142.896 107.099 142.473C107.064 142.23 107.046 141.977 107.046 141.714ZM119.671 128.878C120.565 128.18 121.228 127.658 121.728 127.235C121.693 126.992 121.674 126.739 121.674 126.476C121.674 126.213 121.693 125.96 121.728 125.717C121.228 125.295 120.565 124.773 119.671 124.075L112.311 118.324L112.31 118.324C111.726 117.868 111.157 117.423 110.629 116.989C110.101 117.423 109.532 117.867 108.948 118.323L108.948 118.324L108.947 118.324L108.947 118.324L101.586 124.075C100.693 124.773 100.029 125.295 99.5293 125.717C99.5643 125.961 99.5831 126.213 99.5831 126.476C99.5831 126.739 99.5643 126.992 99.5293 127.235C100.029 127.658 100.693 128.179 101.586 128.878L108.947 134.628C109.531 135.084 110.1 135.529 110.629 135.963C111.157 135.529 111.726 135.084 112.311 134.628L119.671 128.878ZM112.31 104.152C111.726 104.608 111.157 105.053 110.629 105.487C110.101 105.053 109.531 104.608 108.947 104.152L101.586 98.4016C100.693 97.7033 100.029 97.1816 99.5293 96.7589C99.5643 96.5156 99.5831 96.2628 99.5831 96C99.5831 95.7372 99.5643 95.4844 99.5293 95.2411C100.029 94.8184 100.693 94.2968 101.586 93.5984L108.795 87.9667L108.947 87.8481L108.947 87.8478L108.948 87.8475L108.948 87.8471C109.532 87.3911 110.101 86.9468 110.629 86.5132C111.157 86.9471 111.726 87.3916 112.31 87.8479L112.311 87.8481L112.462 87.9667L119.671 93.5984C120.565 94.2967 121.228 94.8183 121.728 95.241C121.693 95.4843 121.674 95.7372 121.674 96C121.674 96.2628 121.693 96.5157 121.728 96.759C121.228 97.1817 120.565 97.7033 119.671 98.4016L112.31 104.152ZM107.046 80.7619C107.046 80.4991 107.064 80.2462 107.099 80.0029C106.6 79.5802 105.936 79.0586 105.042 78.3603L97.8339 72.7286L97.6818 72.6098C97.0975 72.1535 96.5283 71.7089 96.0001 71.2751C95.4719 71.7089 94.9026 72.1535 94.3184 72.6098L94.1663 72.7286L86.9577 78.3603C86.0639 79.0586 85.4006 79.5802 84.9008 80.0029C84.9357 80.2462 84.9545 80.4991 84.9545 80.7619C84.9545 81.0247 84.9357 81.2776 84.9008 81.5209C85.4006 81.9436 86.0639 82.4652 86.9577 83.1635L94.1663 88.7952L94.3184 88.914L94.3185 88.9141L94.3191 88.9146L94.3193 88.9147C94.9032 89.3708 95.4722 89.8151 96.0001 90.2488C96.5279 89.8152 97.0968 89.3709 97.6806 88.9149L97.6813 88.9143L97.6814 88.9143L97.6816 88.9141L97.6818 88.914L97.8339 88.7952L105.042 83.1635C105.936 82.4652 106.6 81.9436 107.099 81.5209C107.064 81.2776 107.046 81.0247 107.046 80.7619ZM119.671 67.9254C120.565 67.2271 121.228 66.7055 121.728 66.2828C121.693 66.0395 121.674 65.7866 121.674 65.5238C121.674 65.261 121.693 65.0081 121.728 64.7648C121.228 64.3422 120.565 63.8205 119.671 63.1222L112.462 57.4905L112.31 57.3718C111.726 56.9155 111.157 56.4709 110.629 56.037C110.101 56.4708 109.532 56.9153 108.947 57.3714L108.947 57.3717L108.947 57.3717L108.947 57.3718L108.795 57.4905L101.586 63.1222C100.693 63.8206 100.029 64.3423 99.5293 64.7649C99.5643 65.0082 99.5831 65.261 99.5831 65.5238C99.5831 65.7866 99.5643 66.0394 99.5293 66.2827C100.029 66.7054 100.693 67.2271 101.586 67.9254L108.795 73.5571L108.947 73.6759L108.947 73.676C109.531 74.1322 110.101 74.5768 110.629 75.0106C111.157 74.5767 111.726 74.1322 112.31 73.6759L112.462 73.5571L119.671 67.9254ZM107.046 50.2857C107.046 50.0229 107.064 49.77 107.099 49.5267C106.6 49.1041 105.936 48.5824 105.042 47.8841L96.0001 40.8198L86.9577 47.8841C86.0639 48.5824 85.4006 49.1041 84.9008 49.5267C84.9357 49.77 84.9545 50.0229 84.9545 50.2857C84.9545 50.5485 84.9357 50.8014 84.9008 51.0448C85.4006 51.4674 86.0639 51.989 86.9577 52.6873L94.1663 58.319L94.3183 58.4378C94.9026 58.8941 95.4719 59.3387 96.0001 59.7726C96.5282 59.3388 97.0974 58.8942 97.6816 58.438L97.6819 58.4378L97.8339 58.319L105.042 52.6873C105.936 51.989 106.6 51.4674 107.099 51.0448C107.064 50.8014 107.046 50.5485 107.046 50.2857ZM107.046 111.238C107.046 110.975 107.064 110.722 107.099 110.479C106.6 110.056 105.936 109.535 105.042 108.837L97.682 103.086C97.0977 102.63 96.5283 102.185 96.0001 101.751C95.4721 102.185 94.903 102.629 94.3189 103.086L94.3183 103.086L94.3182 103.086L86.9577 108.837C86.0639 109.535 85.4006 110.056 84.9008 110.479C84.9357 110.722 84.9545 110.975 84.9545 111.238C84.9545 111.501 84.9357 111.754 84.9008 111.997C85.4006 112.42 86.0639 112.941 86.9577 113.64L94.3184 119.39L94.3185 119.39C94.9027 119.847 95.4719 120.291 96.0001 120.725C96.5281 120.291 97.0972 119.847 97.6812 119.391L97.6818 119.39L105.042 113.64C105.936 112.941 106.6 112.42 107.099 111.997C107.064 111.754 107.046 111.501 107.046 111.238ZM77.8421 49.5267C77.8072 49.77 77.7884 50.0229 77.7884 50.2857C77.7884 50.5485 77.8072 50.8014 77.8421 51.0448C77.3423 51.4674 76.679 51.989 75.7852 52.6873L68.5767 58.319L68.4246 58.4378C67.8404 58.8941 67.2711 59.3387 66.7429 59.7725C66.2147 59.3387 65.6455 58.8941 65.0612 58.4378L64.9092 58.319L57.7006 52.6873C56.8068 51.989 56.1435 51.4674 55.6437 51.0448C55.6786 50.8014 55.6974 50.5485 55.6974 50.2857C55.6974 50.0229 55.6786 49.77 55.6437 49.5267C56.1435 49.1041 56.8068 48.5824 57.7006 47.8841L66.7429 40.8198L75.7853 47.8841C76.679 48.5824 77.3423 49.1041 77.8421 49.5267ZM81.3715 56.037C81.8996 56.4709 82.4689 56.9154 83.0531 57.3717L83.0532 57.3718L83.2052 57.4905L90.4138 63.1222C91.3077 63.8206 91.971 64.3423 92.4708 64.7649C92.4359 65.0082 92.4171 65.261 92.4171 65.5238C92.4171 65.7866 92.4359 66.0394 92.4708 66.2827C91.971 66.7054 91.3077 67.2271 90.4138 67.9254L83.2052 73.5571L83.0531 73.6759C82.4689 74.1322 81.8996 74.5767 81.3715 75.0106C80.8433 74.5767 80.274 74.1322 79.6898 73.6759L79.5377 73.5571L72.3292 67.9254C71.4354 67.2271 70.772 66.7055 70.2722 66.2828C70.3072 66.0395 70.326 65.7866 70.326 65.5238C70.326 65.261 70.3072 65.0081 70.2722 64.7648C70.772 64.3422 71.4354 63.8205 72.3292 63.1222L79.5377 57.4905L79.6897 57.3718C80.274 56.9155 80.8433 56.4709 81.3715 56.037ZM77.8421 80.0029C77.8072 80.2462 77.7884 80.4991 77.7884 80.7619C77.7884 81.0247 77.8072 81.2776 77.8421 81.5209C77.3423 81.9436 76.679 82.4652 75.7852 83.1635L68.5767 88.7952L68.4246 88.914L68.4243 88.9142L68.4237 88.9147C67.8398 89.3707 67.2708 89.8151 66.7429 90.2487C66.215 89.815 65.646 89.3707 65.0621 88.9146L65.0615 88.9142L65.0613 88.914L64.9092 88.7952L57.7006 83.1635C56.8068 82.4652 56.1435 81.9436 55.6437 81.5209C55.6786 81.2776 55.6974 81.0247 55.6974 80.7619C55.6974 80.4991 55.6786 80.2462 55.6437 80.0029C56.1435 79.5802 56.8068 79.0586 57.7006 78.3603L64.9092 72.7286L65.0613 72.6098L65.0615 72.6096C65.6457 72.1534 66.2148 71.7089 66.7429 71.2751C67.2711 71.7089 67.8403 72.1535 68.4245 72.6097L68.4245 72.6098L68.4246 72.6098L68.4246 72.6098L68.5767 72.7286L75.7853 78.3603C76.679 79.0586 77.3423 79.5802 77.8421 80.0029ZM83.053 87.8478L83.0531 87.8479L83.0531 87.848L83.0533 87.8481L83.2052 87.9667L90.4138 93.5984C91.3077 94.2967 91.971 94.8184 92.4708 95.2411C92.4359 95.4844 92.4171 95.7372 92.4171 96C92.4171 96.2628 92.4359 96.5156 92.4708 96.7589C91.971 97.1816 91.3077 97.7033 90.4138 98.4016L83.0531 104.152L83.053 104.152C82.4688 104.608 81.8996 105.053 81.3715 105.487C80.8434 105.053 80.2742 104.608 79.69 104.152L79.6898 104.152L72.3292 98.4016C71.4354 97.7033 70.772 97.1816 70.2722 96.759C70.3072 96.5157 70.326 96.2628 70.326 96C70.326 95.7372 70.3072 95.4843 70.2722 95.241C70.772 94.8184 71.4354 94.2967 72.3292 93.5984L79.5377 87.9667L79.6897 87.8481L79.6898 87.848L79.6901 87.8477L79.6905 87.8474C80.2745 87.3913 80.8435 86.9469 81.3715 86.5132C81.8996 86.947 82.4688 87.3916 83.053 87.8478ZM77.8421 110.479C77.8072 110.722 77.7884 110.975 77.7884 111.238C77.7884 111.501 77.8072 111.754 77.8421 111.997C77.3423 112.42 76.679 112.941 75.7852 113.64L68.4246 119.39C67.8403 119.846 67.2711 120.291 66.7429 120.725C66.2148 120.291 65.6455 119.846 65.0613 119.39L57.7006 113.64C56.8068 112.941 56.1435 112.42 55.6437 111.997C55.6786 111.754 55.6974 111.501 55.6974 111.238C55.6974 110.975 55.6786 110.722 55.6437 110.479C56.1435 110.056 56.8068 109.535 57.7006 108.837L65.0611 103.086L65.0612 103.086C65.6454 102.63 66.2147 102.185 66.7429 101.751C67.2711 102.185 67.8405 102.63 68.4247 103.086L75.7853 108.837C76.679 109.535 77.3423 110.056 77.8421 110.479ZM83.053 118.324L83.0531 118.324L83.0531 118.324L83.0533 118.324L90.4138 124.075C91.3077 124.773 91.971 125.295 92.4708 125.717C92.4359 125.961 92.4171 126.213 92.4171 126.476C92.4171 126.739 92.4359 126.992 92.4708 127.235C91.971 127.658 91.3077 128.179 90.4138 128.878L83.0534 134.628C82.4691 135.084 81.8997 135.529 81.3715 135.963C80.8432 135.529 80.2739 135.084 79.6895 134.628L72.3292 128.878C71.4354 128.18 70.772 127.658 70.2722 127.235C70.3072 126.992 70.326 126.739 70.326 126.476C70.326 126.213 70.3072 125.96 70.2722 125.717C70.772 125.295 71.4354 124.773 72.3292 124.075L79.6897 118.324L79.6898 118.324L79.6901 118.324L79.6905 118.324C80.2745 117.867 80.8435 117.423 81.3715 116.989C81.8996 117.423 82.4688 117.868 83.053 118.324ZM77.8421 140.955C77.3423 140.533 76.679 140.011 75.7853 139.313L68.4247 133.562C67.8404 133.106 67.2711 132.661 66.7429 132.227C66.2147 132.661 65.6455 133.106 65.0612 133.562L57.7006 139.313C56.8068 140.011 56.1435 140.533 55.6437 140.955C55.6786 141.199 55.6974 141.451 55.6974 141.714C55.6974 141.977 55.6786 142.23 55.6437 142.473C56.1435 142.896 56.8068 143.418 57.7006 144.116L66.7429 151.18L75.7852 144.116C76.679 143.418 77.3423 142.896 77.8421 142.473C77.8072 142.23 77.7884 141.977 77.7884 141.714C77.7884 141.451 77.8072 141.199 77.8421 140.955ZM50.4326 57.3718C51.0169 56.9155 51.5862 56.4709 52.1144 56.037C52.6426 56.4709 53.2118 56.9155 53.7961 57.3718L53.9481 57.4905L61.1567 63.1222C62.0505 63.8205 62.7138 64.3422 63.2136 64.7648C63.1787 65.0081 63.1599 65.261 63.1599 65.5238C63.1599 65.7866 63.1787 66.0395 63.2136 66.2828C62.7138 66.7055 62.0505 67.2271 61.1567 67.9254L53.9481 73.5571L53.796 73.6759C53.2118 74.1322 52.6425 74.5767 52.1144 75.0106C51.5863 74.5768 51.0172 74.1323 50.433 73.6762L50.4328 73.6759L50.4327 73.6759L50.2806 73.5571L43.0721 67.9254C41.5812 66.7607 40.7317 66.0874 40.2125 65.5454L40.1919 65.5238L40.2125 65.5022C40.7317 64.9603 41.5812 64.2869 43.0721 63.1222L50.2806 57.4905L50.4326 57.3718ZM61.1567 93.5984C62.0505 94.2967 62.7138 94.8184 63.2136 95.241C63.1787 95.4843 63.1599 95.7372 63.1599 96C63.1599 96.2628 63.1787 96.5157 63.2136 96.759C62.7138 97.1816 62.0505 97.7033 61.1567 98.4016L53.796 104.152L53.7959 104.152L53.7956 104.152C53.2115 104.609 52.6424 105.053 52.1144 105.487C51.5862 105.053 51.017 104.608 50.4327 104.152L43.0721 98.4016C41.5812 97.2369 40.7317 96.5636 40.2125 96.0216L40.1919 96L40.2125 95.9784C40.7317 95.4364 41.5812 94.7631 43.0721 93.5984L50.2806 87.9667L50.4326 87.8481L50.4327 87.8479L50.4329 87.8478C51.0171 87.3915 51.5863 86.947 52.1144 86.5132C52.6417 86.9464 53.21 87.3902 53.7932 87.8458L53.7951 87.8472L53.7957 87.8477L53.796 87.8479L53.7962 87.8481L53.9481 87.9667L61.1567 93.5984ZM61.1567 124.075C62.0505 124.773 62.7138 125.295 63.2136 125.717C63.1787 125.96 63.1599 126.213 63.1599 126.476C63.1599 126.739 63.1787 126.992 63.2136 127.235C62.7138 127.658 62.0505 128.179 61.1567 128.878L53.7963 134.628C53.212 135.084 52.6426 135.529 52.1144 135.963C51.5861 135.529 51.0168 135.084 50.4324 134.628L43.0721 128.878C41.5812 127.713 40.7317 127.04 40.2125 126.498L40.1919 126.476L40.2125 126.455C40.7317 125.913 41.5812 125.239 43.0721 124.075L50.4326 118.324L50.4327 118.324L50.4329 118.324C51.0171 117.868 51.5863 117.423 52.1144 116.989C52.6417 117.423 53.21 117.866 53.7932 118.322L53.7951 118.323L53.7957 118.324L53.796 118.324L53.7962 118.324L61.1567 124.075Z" fill="white"/>
<defs>
<linearGradient id="paint0_linear_148_1848" x1="96" y1="0" x2="96" y2="192" gradientUnits="userSpaceOnUse">
<stop stop-color="#9BEFBD"/>
<stop offset="1" stop-color="#50D820"/>
</linearGradient>
</defs>
</svg>
