<svg width="192" height="192" viewBox="0 0 192 192" fill="none" xmlns="http://www.w3.org/2000/svg">
<path d="M0 60.9524C0 27.2893 27.2893 0 60.9524 0H131.048C164.711 0 192 27.2893 192 60.9524V131.048C192 164.711 164.711 192 131.048 192H60.9524C27.2893 192 0 164.711 0 131.048V60.9524Z" fill="#FFD1A7"/>
<path fill-rule="evenodd" clip-rule="evenodd" d="M95.2099 21.3333C92.5916 21.3333 90.4691 23.4558 90.4691 26.0741V39.7716C79.0084 40.8773 68.5419 45.3836 60.0909 52.2692L50.4658 42.644C48.6144 40.7926 45.6127 40.7926 43.7613 42.644L42.6439 43.7614C40.7926 45.6128 40.7926 48.6145 42.6439 50.4658L52.2307 60.0527C45.2243 68.4815 40.6065 78.9666 39.416 90.4691H26.0741C23.4558 90.4691 21.3333 92.5916 21.3333 95.2099L21.3333 96.7901C21.3333 99.4083 23.4558 101.531 26.0741 101.531H39.3397C40.3791 113.146 44.9094 123.756 51.874 132.304L42.6439 141.534C40.7926 143.386 40.7926 146.387 42.6439 148.239L43.7613 149.356C45.6127 151.207 48.6144 151.207 50.4658 149.356L59.6575 140.164C68.1828 147.251 78.8116 151.894 90.4691 153.019V165.926C90.4691 168.544 92.5916 170.667 95.2099 170.667H96.7901C99.4084 170.667 101.531 168.544 101.531 165.926V153.019C113.188 151.894 123.817 147.251 132.342 140.164L141.534 149.356C143.386 151.207 146.387 151.207 148.239 149.356L149.356 148.239C151.207 146.387 151.207 143.386 149.356 141.534L140.126 132.304C147.09 123.756 151.621 113.146 152.66 101.531H165.926C168.544 101.531 170.667 99.4083 170.667 96.7901V95.2099C170.667 92.5916 168.544 90.4691 165.926 90.4691H152.584C151.393 78.9666 146.776 68.4815 139.769 60.0526L149.356 50.4658C151.207 48.6144 151.207 45.6128 149.356 43.7614L148.239 42.644C146.387 40.7926 143.386 40.7926 141.534 42.644L131.909 52.2692C123.458 45.3836 112.992 40.8774 101.531 39.7716V26.0741C101.531 23.4558 99.4084 21.3333 96.7901 21.3333H95.2099ZM52.1464 90.4691C53.2202 82.4464 56.4439 75.1042 61.2191 69.041L77.0878 84.9097C76.0447 86.6237 75.228 88.4907 74.6793 90.4691H52.1464ZM74.4759 101.531H52.0478C52.9881 109.665 56.1346 117.128 60.8735 123.305L76.7943 107.384C75.7586 105.577 74.9704 103.611 74.4759 101.531ZM84.5145 115.307L68.6458 131.176C74.8084 136.029 82.2923 139.28 90.4691 140.3V117.822C88.3439 117.274 86.3422 116.42 84.5145 115.307ZM101.531 117.822V140.3C109.708 139.28 117.191 136.029 123.354 131.176L107.485 115.307C105.658 116.42 103.656 117.275 101.531 117.822ZM115.206 107.384L131.126 123.305C135.865 117.128 139.012 109.665 139.952 101.531H117.524C117.03 103.611 116.242 105.578 115.206 107.384ZM117.321 90.4691H139.853C138.78 82.4464 135.556 75.1042 130.781 69.041L114.912 84.9094C115.956 86.6235 116.772 88.4906 117.321 90.4691ZM106.989 77.1893L122.909 61.2686C116.833 56.6066 109.512 53.4857 101.531 52.4905V74.9686C103.465 75.4664 105.297 76.2193 106.989 77.1893ZM90.4691 74.9686V52.4905C82.488 53.4857 75.1669 56.6065 69.0904 61.2686L85.0112 77.1894C86.7028 76.2194 88.5348 75.4665 90.4691 74.9686Z" fill="#FF5C00"/>
</svg>
