<svg width="17" height="16" viewBox="0 0 17 16" fill="none" xmlns="http://www.w3.org/2000/svg">
<path d="M8.97341 7.52665C8.91001 7.46595 8.83525 7.41838 8.75341 7.38665C8.59111 7.31997 8.40906 7.31997 8.24675 7.38665C8.16491 7.41838 8.09015 7.46595 8.02675 7.52665L6.69341 8.85998C6.56788 8.98552 6.49735 9.15578 6.49735 9.33331C6.49735 9.51085 6.56788 9.68111 6.69341 9.80665C6.81895 9.93218 6.98921 10.0027 7.16675 10.0027C7.34428 10.0027 7.51455 9.93218 7.64008 9.80665L7.83341 9.60665V11.3333C7.83341 11.5101 7.90365 11.6797 8.02868 11.8047C8.1537 11.9297 8.32327 12 8.50008 12C8.67689 12 8.84646 11.9297 8.97149 11.8047C9.09651 11.6797 9.16675 11.5101 9.16675 11.3333V9.60665L9.36008 9.80665C9.42206 9.86913 9.49579 9.91873 9.57703 9.95257C9.65827 9.98642 9.74541 10.0038 9.83341 10.0038C9.92142 10.0038 10.0086 9.98642 10.0898 9.95257C10.171 9.91873 10.2448 9.86913 10.3067 9.80665C10.3692 9.74467 10.4188 9.67094 10.4527 9.5897C10.4865 9.50846 10.5039 9.42132 10.5039 9.33331C10.5039 9.24531 10.4865 9.15817 10.4527 9.07693C10.4188 8.99569 10.3692 8.92196 10.3067 8.85998L8.97341 7.52665ZM13.8334 5.95998C13.8265 5.89874 13.8131 5.8384 13.7934 5.77998V5.71998C13.7614 5.65143 13.7186 5.58842 13.6667 5.53331L9.66675 1.53331C9.61164 1.48146 9.54863 1.4387 9.48008 1.40665H9.41341C9.34859 1.37198 9.27892 1.34726 9.20675 1.33331H5.16675C4.63631 1.33331 4.12761 1.54403 3.75253 1.9191C3.37746 2.29417 3.16675 2.80288 3.16675 3.33331V12.6666C3.16675 13.1971 3.37746 13.7058 3.75253 14.0809C4.12761 14.4559 4.63631 14.6666 5.16675 14.6666H11.8334C12.3638 14.6666 12.8726 14.4559 13.2476 14.0809C13.6227 13.7058 13.8334 13.1971 13.8334 12.6666V5.99998C13.8334 5.99998 13.8334 5.99998 13.8334 5.95998ZM9.83341 3.60665L11.5601 5.33331H10.5001C10.3233 5.33331 10.1537 5.26308 10.0287 5.13805C9.90365 5.01303 9.83341 4.84346 9.83341 4.66665V3.60665ZM12.5001 12.6666C12.5001 12.8435 12.4298 13.013 12.3048 13.1381C12.1798 13.2631 12.0102 13.3333 11.8334 13.3333H5.16675C4.98994 13.3333 4.82037 13.2631 4.69534 13.1381C4.57032 13.013 4.50008 12.8435 4.50008 12.6666V3.33331C4.50008 3.1565 4.57032 2.98693 4.69534 2.86191C4.82037 2.73688 4.98994 2.66665 5.16675 2.66665H8.50008V4.66665C8.50008 5.19708 8.71079 5.70579 9.08587 6.08086C9.46094 6.45593 9.96965 6.66665 10.5001 6.66665H12.5001V12.6666Z" fill="#FF5C00"/>
</svg>
