<svg width="147" height="36" viewBox="0 0 147 36" fill="none" xmlns="http://www.w3.org/2000/svg">
<path d="M48.9802 12.0569C49.5922 12.0569 50.1912 12.1611 50.7771 12.3694C51.363 12.5777 51.8904 12.8837 52.3591 13.2874C52.8409 13.691 53.2185 14.1793 53.4919 14.7522C53.7784 15.3121 53.9216 15.9567 53.9216 16.6858C53.9216 17.5712 53.6938 18.359 53.238 19.0491C52.7953 19.7262 52.2029 20.26 51.4607 20.6507C50.7185 21.0413 49.9112 21.2366 49.0388 21.2366C48.4529 21.2366 47.9255 21.178 47.4568 21.0608C46.988 20.9436 46.5974 20.8069 46.2849 20.6507V25.1429H43.5701V12.0569H48.9802ZM46.2849 14.596V18.4632C46.5714 18.5804 46.9164 18.6845 47.3201 18.7757C47.7367 18.8538 48.1599 18.8929 48.5896 18.8929C49.3708 18.8929 49.9893 18.678 50.4451 18.2483C50.9138 17.8056 51.1482 17.2848 51.1482 16.6858C51.1482 15.9957 50.8878 15.4749 50.3669 15.1233C49.8461 14.7718 49.2341 14.596 48.531 14.596H46.2849Z" fill="black"/>
<path d="M61.2373 18.053C60.8206 17.8186 60.3844 17.7014 59.9287 17.7014C59.3557 17.7014 58.8805 17.8902 58.5029 18.2679C58.1253 18.6324 57.7932 19.0882 57.5068 19.635V25.1429H55.0263V15.2796H57.5068V17.135C57.8453 16.5491 58.2425 16.0608 58.6982 15.6702C59.1669 15.2796 59.6943 15.0843 60.2802 15.0843C60.6318 15.0843 60.9508 15.1429 61.2373 15.26V18.053Z" fill="black"/>
<path d="M66.5412 15.0257C67.5047 15.0257 68.3836 15.26 69.1779 15.7288C69.9721 16.1845 70.6102 16.8095 71.0919 17.6038C71.5867 18.385 71.8341 19.2639 71.8341 20.2405C71.8341 21.2171 71.5867 22.096 71.0919 22.8772C70.6102 23.6585 69.9721 24.2835 69.1779 24.7522C68.3836 25.208 67.5047 25.4358 66.5412 25.4358C65.5906 25.4358 64.7117 25.208 63.9044 24.7522C63.1102 24.2835 62.4722 23.6585 61.9904 22.8772C61.5086 22.096 61.2677 21.2171 61.2677 20.2405C61.2677 19.2639 61.5086 18.385 61.9904 17.6038C62.4722 16.8095 63.1102 16.1845 63.9044 15.7288C64.7117 15.26 65.5906 15.0257 66.5412 15.0257ZM66.5412 17.428C66.0724 17.428 65.6362 17.5387 65.2326 17.76C64.8289 17.9814 64.5034 18.3004 64.256 18.7171C64.0216 19.1337 63.9044 19.6416 63.9044 20.2405C63.9044 20.8395 64.0216 21.3473 64.256 21.7639C64.5034 22.1806 64.8289 22.4996 65.2326 22.721C65.6362 22.9293 66.0724 23.0335 66.5412 23.0335C67.0099 23.0335 67.4461 22.9293 67.8498 22.721C68.2534 22.4996 68.5789 22.1806 68.8263 21.7639C69.0737 21.3473 69.1974 20.8395 69.1974 20.2405C69.1974 19.6416 69.0737 19.1337 68.8263 18.7171C68.5789 18.3004 68.2534 17.9814 67.8498 17.76C67.4461 17.5387 67.0099 17.428 66.5412 17.428Z" fill="black"/>
<path d="M74.931 10.1429C75.3867 10.1429 75.7839 10.3121 76.1224 10.6507C76.474 10.9762 76.6498 11.3668 76.6498 11.8225C76.6498 12.2652 76.474 12.6559 76.1224 12.9944C75.7839 13.333 75.3867 13.5022 74.931 13.5022C74.4492 13.5022 74.0391 13.333 73.7005 12.9944C73.375 12.6559 73.2123 12.2652 73.2123 11.8225C73.2123 11.3668 73.375 10.9762 73.7005 10.6507C74.0391 10.3121 74.4492 10.1429 74.931 10.1429ZM76.3373 15.2796V25.0257C76.3373 26.3668 76.0248 27.4475 75.3998 28.2679C74.7878 29.1012 73.9219 29.7197 72.8021 30.1233L71.7083 27.9554C72.3985 27.6429 72.9258 27.2652 73.2904 26.8225C73.668 26.3798 73.8568 25.8134 73.8568 25.1233V17.3889H72.2748V15.2796H76.3373Z" fill="black"/>
<path d="M82.6568 15.0257C83.6203 15.0257 84.4471 15.234 85.1373 15.6507C85.8404 16.0673 86.3742 16.6468 86.7388 17.3889C87.1164 18.1181 87.3052 18.9645 87.3052 19.928V20.9827H80.1568C80.287 21.6468 80.6125 22.1806 81.1333 22.5843C81.6542 22.9879 82.2922 23.1897 83.0474 23.1897C83.7636 23.1897 84.4146 23.0465 85.0005 22.76C85.5865 22.4736 86.0552 22.1806 86.4068 21.8811L86.3873 24.1858C86.0748 24.4593 85.606 24.7392 84.981 25.0257C84.369 25.2991 83.6919 25.4358 82.9498 25.4358C81.9732 25.4358 81.0813 25.2145 80.274 24.7718C79.4797 24.3291 78.8417 23.7236 78.3599 22.9554C77.8912 22.1871 77.6568 21.3082 77.6568 20.3186C77.6568 19.3551 77.8716 18.4762 78.3013 17.6819C78.731 16.8876 79.3235 16.2496 80.0787 15.7679C80.8339 15.2731 81.6932 15.0257 82.6568 15.0257ZM82.5982 17.1936C81.9862 17.1936 81.4719 17.3824 81.0552 17.76C80.6386 18.1376 80.3521 18.6455 80.1958 19.2835H84.9224C84.8703 18.5804 84.6099 18.0595 84.1412 17.721C83.6724 17.3694 83.1581 17.1936 82.5982 17.1936Z" fill="black"/>
<path d="M92.863 15.0257C93.5922 15.0257 94.1912 15.1429 94.6599 15.3772C95.1287 15.6116 95.4998 15.8395 95.7732 16.0608V18.346C95.4347 18.0986 95.0505 17.8902 94.6208 17.721C94.2042 17.5517 93.6899 17.4671 93.0779 17.4671C92.5831 17.4671 92.1208 17.5908 91.6912 17.8382C91.2745 18.0856 90.9425 18.4176 90.6951 18.8343C90.4477 19.2509 90.324 19.7262 90.324 20.26C90.324 21.0673 90.5844 21.7314 91.1052 22.2522C91.6261 22.7731 92.2836 23.0335 93.0779 23.0335C93.6899 23.0335 94.2042 22.9554 94.6208 22.7991C95.0505 22.6298 95.4347 22.4215 95.7732 22.1741V24.4397C95.4998 24.6741 95.1287 24.902 94.6599 25.1233C94.1912 25.3317 93.5922 25.4358 92.863 25.4358C91.8604 25.4358 90.9685 25.2014 90.1873 24.7327C89.419 24.2509 88.807 23.6194 88.3513 22.8382C87.9086 22.0439 87.6873 21.1845 87.6873 20.26C87.6873 19.5699 87.811 18.9124 88.0583 18.2874C88.3188 17.6624 88.6833 17.109 89.1521 16.6272C89.6208 16.1324 90.1677 15.7418 90.7927 15.4554C91.4307 15.1689 92.1208 15.0257 92.863 15.0257Z" fill="black"/>
<path d="M100.354 12.4085V15.2796H103.089V17.3499H100.354V21.6077C100.354 22.0504 100.452 22.402 100.647 22.6624C100.856 22.9098 101.162 23.0335 101.565 23.0335C101.917 23.0335 102.216 22.9944 102.464 22.9163C102.724 22.8382 102.965 22.7275 103.186 22.5843V24.5569C102.939 24.8043 102.627 25.0126 102.249 25.1819C101.884 25.3512 101.422 25.4358 100.862 25.4358C99.9768 25.4358 99.2542 25.1559 98.6943 24.596C98.1474 24.0231 97.874 23.2418 97.874 22.2522V17.3499H96.0966V16.0804C96.7216 15.859 97.2945 15.4423 97.8154 14.8304C98.3492 14.2184 98.7724 13.4111 99.0849 12.4085H100.354Z" fill="black"/>
<path d="M113.501 15.0257C114.465 15.0257 115.292 15.234 115.982 15.6507C116.685 16.0673 117.219 16.6468 117.583 17.3889C117.961 18.1181 118.15 18.9645 118.15 19.928V20.9827H111.001C111.132 21.6468 111.457 22.1806 111.978 22.5843C112.499 22.9879 113.137 23.1897 113.892 23.1897C114.608 23.1897 115.259 23.0465 115.845 22.76C116.431 22.4736 116.9 22.1806 117.251 21.8811L117.232 24.1858C116.919 24.4593 116.451 24.7392 115.826 25.0257C115.214 25.2991 114.536 25.4358 113.794 25.4358C112.818 25.4358 111.926 25.2145 111.118 24.7718C110.324 24.3291 109.686 23.7236 109.204 22.9554C108.736 22.1871 108.501 21.3082 108.501 20.3186C108.501 19.3551 108.716 18.4762 109.146 17.6819C109.576 16.8876 110.168 16.2496 110.923 15.7679C111.678 15.2731 112.538 15.0257 113.501 15.0257ZM113.443 17.1936C112.831 17.1936 112.316 17.3824 111.9 17.76C111.483 18.1376 111.197 18.6455 111.04 19.2835H115.767C115.715 18.5804 115.454 18.0595 114.986 17.721C114.517 17.3694 114.003 17.1936 113.443 17.1936Z" fill="black"/>
<path d="M120.778 15.2796L123.59 21.5686L126.325 15.2796H129.157L121.989 29.8304H119.176L122.145 24.4202L117.887 15.2796H120.778Z" fill="black"/>
<path d="M133.992 15.0257C134.955 15.0257 135.782 15.234 136.472 15.6507C137.176 16.0673 137.709 16.6468 138.074 17.3889C138.452 18.1181 138.64 18.9645 138.64 19.928V20.9827H131.492C131.622 21.6468 131.948 22.1806 132.468 22.5843C132.989 22.9879 133.627 23.1897 134.383 23.1897C135.099 23.1897 135.75 23.0465 136.336 22.76C136.922 22.4736 137.39 22.1806 137.742 21.8811L137.722 24.1858C137.41 24.4593 136.941 24.7392 136.316 25.0257C135.704 25.2991 135.027 25.4358 134.285 25.4358C133.308 25.4358 132.416 25.2145 131.609 24.7718C130.815 24.3291 130.177 23.7236 129.695 22.9554C129.226 22.1871 128.992 21.3082 128.992 20.3186C128.992 19.3551 129.207 18.4762 129.636 17.6819C130.066 16.8876 130.659 16.2496 131.414 15.7679C132.169 15.2731 133.028 15.0257 133.992 15.0257ZM133.933 17.1936C133.321 17.1936 132.807 17.3824 132.39 17.76C131.974 18.1376 131.687 18.6455 131.531 19.2835H136.258C136.205 18.5804 135.945 18.0595 135.476 17.721C135.008 17.3694 134.493 17.1936 133.933 17.1936Z" fill="black"/>
<path d="M142.89 15.0257C143.502 15.0257 144.068 15.1168 144.589 15.2991C145.11 15.4814 145.513 15.6897 145.8 15.9241V18.1116C145.487 17.9033 145.103 17.7014 144.647 17.5061C144.205 17.3108 143.742 17.2132 143.261 17.2132C142.792 17.2132 142.421 17.3173 142.147 17.5257C141.874 17.734 141.737 17.9814 141.737 18.2679C141.737 18.4762 141.815 18.6715 141.972 18.8538C142.128 19.0231 142.427 19.1728 142.87 19.303L143.983 19.6741C145.481 20.1168 146.229 20.9827 146.229 22.2718C146.229 22.8837 146.054 23.4306 145.702 23.9124C145.364 24.3811 144.901 24.7522 144.315 25.0257C143.742 25.2991 143.104 25.4358 142.401 25.4358C141.737 25.4358 141.093 25.3317 140.468 25.1233C139.843 24.915 139.367 24.6871 139.042 24.4397V22.2718C139.289 22.441 139.589 22.6038 139.94 22.76C140.292 22.9163 140.657 23.0465 141.034 23.1507C141.412 23.2418 141.757 23.2874 142.069 23.2874C142.564 23.2874 142.942 23.2027 143.202 23.0335C143.476 22.8512 143.612 22.5973 143.612 22.2718C143.612 22.0244 143.502 21.8291 143.28 21.6858C143.059 21.5426 142.733 21.3994 142.304 21.2561L141.093 20.8264C140.338 20.5791 139.817 20.2275 139.53 19.7718C139.244 19.316 139.101 18.7757 139.101 18.1507C139.101 17.5257 139.257 16.9853 139.569 16.5296C139.895 16.0608 140.344 15.6962 140.917 15.4358C141.49 15.1624 142.147 15.0257 142.89 15.0257Z" fill="black"/>
<path d="M0 11.4286C0 5.11675 5.11675 0 11.4286 0H24.5714C30.8833 0 36 5.11675 36 11.4286V24.5714C36 30.8833 30.8833 36 24.5714 36H11.4286C5.11675 36 0 30.8833 0 24.5714V11.4286Z" fill="#FFD1A7"/>
<path fill-rule="evenodd" clip-rule="evenodd" d="M17.8519 4C17.3609 4 16.963 4.39797 16.963 4.88889V7.45717C14.8141 7.66449 12.8516 8.50942 11.2671 9.80047L9.46234 7.99575C9.1152 7.64862 8.55239 7.64862 8.20526 7.99575L7.99575 8.20526C7.64861 8.55239 7.64861 9.11521 7.99575 9.46234L9.79327 11.2599C8.47957 12.8403 7.61373 14.8062 7.3905 16.963H4.88889C4.39797 16.963 4 17.3609 4 17.8518V18.1481C4 18.6391 4.39797 19.037 4.88889 19.037H7.37621C7.57108 21.2149 8.42052 23.2043 9.72639 24.807L7.99573 26.5377C7.6486 26.8848 7.6486 27.4476 7.99573 27.7947L8.20524 28.0043C8.55238 28.3514 9.11519 28.3514 9.46232 28.0043L11.1858 26.2808C12.7843 27.6095 14.7772 28.4801 16.963 28.691V31.1111C16.963 31.602 17.3609 32 17.8519 32H18.1482C18.6391 32 19.037 31.602 19.037 31.1111V28.691C21.2228 28.4801 23.2157 27.6095 24.8142 26.2808L26.5377 28.0043C26.8848 28.3514 27.4476 28.3514 27.7947 28.0043L28.0042 27.7947C28.3514 27.4476 28.3514 26.8848 28.0042 26.5377L26.2736 24.807C27.5795 23.2043 28.4289 21.2149 28.6238 19.037H31.1111C31.602 19.037 32 18.6391 32 18.1481V17.8518C32 17.3609 31.602 16.963 31.1111 16.963H28.6095C28.3863 14.8062 27.5204 12.8403 26.2067 11.2599L28.0042 9.46234C28.3514 9.11521 28.3514 8.55239 28.0042 8.20526L27.7947 7.99575C27.4476 7.64862 26.8848 7.64862 26.5376 7.99575L24.7329 9.80047C23.1484 8.50943 21.1859 7.6645 19.037 7.45718V4.88889C19.037 4.39797 18.6391 4 18.1482 4H17.8519ZM9.77746 16.963C9.9788 15.4587 10.5832 14.082 11.4786 12.9452L14.454 15.9206C14.2584 16.2419 14.1052 16.592 14.0024 16.963H9.77746ZM13.9642 19.037H9.75898C9.93528 20.5623 10.5252 21.9615 11.4138 23.1196L14.3989 20.1345C14.2047 19.7958 14.0569 19.4271 13.9642 19.037ZM15.8465 21.6201L12.8711 24.5955C14.0266 25.5055 15.4298 26.115 16.963 26.3062V22.0915C16.5645 21.989 16.1892 21.8287 15.8465 21.6201ZM19.037 22.0915V26.3062C20.5702 26.115 21.9734 25.5055 23.1289 24.5955L20.1535 21.6201C19.8108 21.8287 19.4355 21.989 19.037 22.0915ZM21.6011 20.1345L24.5862 23.1196C25.4747 21.9615 26.0647 20.5623 26.241 19.037H22.0358C21.9431 19.4271 21.7953 19.7958 21.6011 20.1345ZM21.9977 16.963H26.2225C26.0212 15.4587 25.4167 14.082 24.5214 12.9452L21.5461 15.9205C21.7417 16.2419 21.8948 16.592 21.9977 16.963ZM20.0604 14.473L23.0455 11.4879C21.9062 10.6137 20.5335 10.0286 19.037 9.84196V14.0566C19.3997 14.15 19.7432 14.2911 20.0604 14.473ZM16.963 14.0566V9.84196C15.4665 10.0286 14.0938 10.6137 12.9545 11.4879L15.9396 14.473C16.2568 14.2911 16.6003 14.15 16.963 14.0566Z" fill="#FF5C00"/>
</svg>
