<svg width="206" height="63" viewBox="0 0 206 63" fill="none" xmlns="http://www.w3.org/2000/svg">
<path d="M96.4473 20.0996V43.1709H94.7383L81.1689 29.1914V43H76.418V19.9287H78.127L91.6963 34.1133V20.0996H96.4473ZM107.985 25.2949C109.671 25.2949 111.118 25.6595 112.326 26.3887C113.556 27.1178 114.49 28.1318 115.129 29.4307C115.789 30.7067 116.12 32.1878 116.12 33.874V35.7197H103.61C103.838 36.8818 104.407 37.8161 105.319 38.5225C106.23 39.2288 107.347 39.582 108.669 39.582C109.922 39.582 111.061 39.3314 112.087 38.8301C113.112 38.3288 113.932 37.8161 114.547 37.292L114.513 41.3252C113.966 41.8037 113.146 42.2936 112.052 42.7949C110.981 43.2734 109.796 43.5127 108.498 43.5127C106.789 43.5127 105.228 43.1253 103.815 42.3506C102.425 41.5758 101.309 40.5163 100.465 39.1719C99.6451 37.8275 99.235 36.2894 99.235 34.5576C99.235 32.8714 99.6109 31.3333 100.363 29.9434C101.115 28.5534 102.152 27.4368 103.473 26.5938C104.795 25.7279 106.299 25.2949 107.985 25.2949ZM107.882 29.0889C106.811 29.0889 105.911 29.4193 105.182 30.0801C104.453 30.7409 103.952 31.6296 103.678 32.7461H111.95C111.859 31.5156 111.403 30.6042 110.583 30.0117C109.762 29.3965 108.862 29.0889 107.882 29.0889ZM124.239 20.7148V25.7393H129.025V29.3623H124.239V36.8135C124.239 37.5882 124.41 38.2035 124.752 38.6592C125.117 39.0921 125.652 39.3086 126.359 39.3086C126.974 39.3086 127.498 39.2402 127.931 39.1035C128.387 38.9668 128.808 38.7731 129.196 38.5225V41.9746C128.763 42.4076 128.216 42.7721 127.555 43.0684C126.917 43.3646 126.108 43.5127 125.128 43.5127C123.579 43.5127 122.314 43.0228 121.334 42.043C120.377 41.0404 119.899 39.6732 119.899 37.9414V29.3623H116.788V27.1406C117.882 26.7533 118.885 26.0241 119.796 24.9531C120.73 23.8822 121.471 22.4694 122.018 20.7148H124.239ZM147.246 25.2949C148.933 25.2949 150.38 25.6595 151.587 26.3887C152.818 27.1178 153.752 28.1318 154.39 29.4307C155.051 30.7067 155.381 32.1878 155.381 33.874V35.7197H142.871C143.099 36.8818 143.669 37.8161 144.58 38.5225C145.492 39.2288 146.608 39.582 147.93 39.582C149.183 39.582 150.323 39.3314 151.348 38.8301C152.373 38.3288 153.194 37.8161 153.809 37.292L153.775 41.3252C153.228 41.8037 152.408 42.2936 151.314 42.7949C150.243 43.2734 149.058 43.5127 147.759 43.5127C146.05 43.5127 144.489 43.1253 143.077 42.3506C141.687 41.5758 140.57 40.5163 139.727 39.1719C138.907 37.8275 138.496 36.2894 138.496 34.5576C138.496 32.8714 138.872 31.3333 139.624 29.9434C140.376 28.5534 141.413 27.4368 142.735 26.5938C144.056 25.7279 145.56 25.2949 147.246 25.2949ZM147.144 29.0889C146.073 29.0889 145.173 29.4193 144.444 30.0801C143.715 30.7409 143.213 31.6296 142.94 32.7461H151.211C151.12 31.5156 150.664 30.6042 149.844 30.0117C149.024 29.3965 148.124 29.0889 147.144 29.0889ZM159.98 25.7393L164.902 36.7451L169.688 25.7393H174.644L162.1 51.2031H157.178L162.373 41.7354L154.922 25.7393H159.98ZM183.105 25.2949C184.791 25.2949 186.238 25.6595 187.446 26.3887C188.676 27.1178 189.611 28.1318 190.249 29.4307C190.909 30.7067 191.24 32.1878 191.24 33.874V35.7197H178.73C178.958 36.8818 179.528 37.8161 180.439 38.5225C181.351 39.2288 182.467 39.582 183.789 39.582C185.042 39.582 186.181 39.3314 187.207 38.8301C188.232 38.3288 189.052 37.8161 189.668 37.292L189.633 41.3252C189.087 41.8037 188.266 42.2936 187.172 42.7949C186.101 43.2734 184.917 43.5127 183.618 43.5127C181.909 43.5127 180.348 43.1253 178.935 42.3506C177.545 41.5758 176.429 40.5163 175.586 39.1719C174.765 37.8275 174.355 36.2894 174.355 34.5576C174.355 32.8714 174.731 31.3333 175.483 29.9434C176.235 28.5534 177.272 27.4368 178.593 26.5938C179.915 25.7279 181.419 25.2949 183.105 25.2949ZM183.003 29.0889C181.932 29.0889 181.032 29.4193 180.302 30.0801C179.573 30.7409 179.072 31.6296 178.798 32.7461H187.07C186.979 31.5156 186.523 30.6042 185.703 30.0117C184.882 29.3965 183.982 29.0889 183.003 29.0889ZM198.676 25.2949C199.747 25.2949 200.738 25.4544 201.65 25.7734C202.561 26.0924 203.267 26.457 203.769 26.8672V30.6953C203.222 30.3307 202.55 29.9775 201.752 29.6357C200.977 29.2939 200.168 29.123 199.325 29.123C198.505 29.123 197.856 29.3053 197.377 29.6699C196.899 30.0345 196.659 30.4674 196.659 30.9688C196.659 31.3333 196.796 31.6751 197.07 31.9941C197.343 32.2904 197.867 32.5524 198.642 32.7803L200.59 33.4297C203.21 34.2044 204.521 35.7197 204.521 37.9756C204.521 39.0465 204.213 40.0036 203.598 40.8467C203.005 41.667 202.196 42.3164 201.171 42.7949C200.168 43.2734 199.052 43.5127 197.821 43.5127C196.659 43.5127 195.531 43.3304 194.438 42.9658C193.344 42.6012 192.512 42.2025 191.943 41.7695V37.9756C192.376 38.2718 192.9 38.5566 193.515 38.8301C194.13 39.1035 194.768 39.3314 195.429 39.5137C196.09 39.6732 196.694 39.7529 197.24 39.7529C198.106 39.7529 198.767 39.6048 199.223 39.3086C199.701 38.9896 199.941 38.5452 199.941 37.9756C199.941 37.5426 199.747 37.2008 199.36 36.9502C198.972 36.6995 198.403 36.4489 197.651 36.1982L195.531 35.4463C194.21 35.0133 193.298 34.3981 192.797 33.6006C192.296 32.8031 192.045 31.8574 192.045 30.7637C192.045 29.6699 192.319 28.7243 192.865 27.9268C193.435 27.1064 194.221 26.4684 195.224 26.0127C196.226 25.5342 197.377 25.2949 198.676 25.2949Z" fill="black"/>
<path d="M0 20C0 8.9543 8.95431 0 20 0H43C54.0457 0 63 8.95431 63 20V43C63 54.0457 54.0457 63 43 63H20C8.9543 63 0 54.0457 0 43V20Z" fill="url(#paint0_linear_33_1291)"/>
<path fill-rule="evenodd" clip-rule="evenodd" d="M10.8844 12.288L15.267 15.712C15.5603 15.9411 15.7779 16.1123 15.9419 16.2509C15.9305 16.3308 15.9243 16.4138 15.9243 16.5C15.9243 16.5862 15.9305 16.6692 15.9419 16.7491C15.7779 16.8877 15.5603 17.0589 15.267 17.288L12.9017 19.1359L12.8518 19.1749L12.8518 19.1749C12.4307 19.5038 12.0333 19.8141 11.7505 20.1094C11.4383 20.4352 11.1243 20.8846 11.1243 21.5C11.1243 22.1154 11.4383 22.5648 11.7505 22.8906C12.0333 23.1859 12.4307 23.4962 12.8518 23.8251L12.9017 23.8641L15.267 25.712C15.5603 25.9411 15.7779 26.1123 15.9419 26.2509C15.9305 26.3308 15.9243 26.4138 15.9243 26.5C15.9243 26.5862 15.9305 26.6692 15.9419 26.7491C15.7779 26.8877 15.5603 27.0589 15.267 27.288L12.9017 29.1359L12.8518 29.1749L12.8518 29.1749C12.4307 29.5038 12.0333 29.8141 11.7505 30.1094C11.4383 30.4352 11.1243 30.8846 11.1243 31.5C11.1243 32.1154 11.4383 32.5648 11.7505 32.8906C12.0333 33.1859 12.4307 33.4962 12.8518 33.8251L12.8518 33.8251L12.8519 33.8251L15.267 35.712C15.5603 35.9411 15.7779 36.1123 15.9419 36.2509C15.9305 36.3308 15.9243 36.4138 15.9243 36.5C15.9243 36.5862 15.9305 36.6692 15.9419 36.7491C15.7779 36.8877 15.5603 37.0589 15.267 37.288L12.8518 39.1749C12.4307 39.5038 12.0333 39.8141 11.7505 40.1094C11.4383 40.4352 11.1243 40.8846 11.1243 41.5C11.1243 42.1154 11.4383 42.5648 11.7505 42.8906C12.0333 43.1859 12.4307 43.4962 12.8518 43.8251L15.267 45.712C15.5603 45.9411 15.7779 46.1123 15.9419 46.2509C15.9305 46.3308 15.9243 46.4138 15.9243 46.5C15.9243 46.5862 15.9305 46.6692 15.9419 46.7491C15.7779 46.8877 15.5603 47.0589 15.267 47.288L10.8844 50.712L12.1157 52.288L16.5482 48.8251C16.7399 48.6754 16.9267 48.5295 17.1 48.3871C17.2733 48.5295 17.4601 48.6754 17.6518 48.8251L21.1381 51.5488L21.7157 52.288L21.9 52.144L22.0844 52.288L22.6619 51.5488L26.1482 48.8251C26.3399 48.6754 26.5267 48.5295 26.7 48.3871C26.8733 48.5295 27.0601 48.6754 27.2518 48.8251L30.7382 51.5488L31.3157 52.288L31.5 52.144L31.6844 52.288L32.2619 51.5488L35.7482 48.8251L35.7483 48.8251L35.7483 48.825L35.7484 48.8249L35.7486 48.8248L35.749 48.8245C35.9404 48.675 36.127 48.5293 36.3 48.3871C36.4732 48.5294 36.6598 48.6752 36.8514 48.8247L36.8518 48.8251L36.8518 48.8251L40.3381 51.5487L40.9156 52.288L41.1 52.144L41.2844 52.288L41.8619 51.5487L45.3482 48.8251L45.3482 48.8251L45.3484 48.825L45.3486 48.8248C45.5402 48.6752 45.7268 48.5294 45.9 48.3871C46.0733 48.5295 46.2601 48.6754 46.4518 48.8251L46.4518 48.8251L50.8844 52.288L52.1157 50.712L47.733 47.288C47.4397 47.0589 47.2221 46.8877 47.0581 46.749C47.0695 46.6692 47.0757 46.5862 47.0757 46.5C47.0757 46.4138 47.0695 46.3308 47.0581 46.251C47.2221 46.1123 47.4397 45.9411 47.733 45.712L50.1482 43.8251C50.5693 43.4962 50.9667 43.1859 51.2496 42.8906C51.5617 42.5648 51.8757 42.1154 51.8757 41.5C51.8757 40.8846 51.5617 40.4352 51.2496 40.1094C50.9667 39.8141 50.5693 39.5038 50.1482 39.1749L47.733 37.288C47.4397 37.0589 47.2221 36.8877 47.0581 36.749C47.0695 36.6692 47.0757 36.5862 47.0757 36.5C47.0757 36.4138 47.0695 36.3308 47.0581 36.251C47.2221 36.1123 47.4397 35.9411 47.733 35.712L50.1482 33.8251L50.1482 33.8251C50.5693 33.4962 50.9667 33.1859 51.2496 32.8906C51.5617 32.5648 51.8757 32.1154 51.8757 31.5C51.8757 30.8846 51.5617 30.4352 51.2496 30.1094C50.9667 29.8142 50.5694 29.5038 50.1483 29.1749L50.1482 29.1749L50.0983 29.1359L47.733 27.288C47.4397 27.0589 47.2221 26.8877 47.0581 26.749C47.0695 26.6692 47.0757 26.5862 47.0757 26.5C47.0757 26.4138 47.0695 26.3308 47.0581 26.251C47.2221 26.1123 47.4397 25.9411 47.733 25.712L50.0983 23.8641L50.1482 23.8251C50.5693 23.4962 50.9667 23.1859 51.2496 22.8906C51.5617 22.5648 51.8757 22.1154 51.8757 21.5C51.8757 20.8846 51.5617 20.4352 51.2496 20.1094C50.9667 19.8141 50.5693 19.5038 50.1482 19.1749L50.1482 19.1749L50.0983 19.1359L47.733 17.288C47.4397 17.0589 47.2221 16.8877 47.0581 16.749C47.0695 16.6692 47.0757 16.5862 47.0757 16.5C47.0757 16.4138 47.0695 16.3308 47.0581 16.251C47.2221 16.1123 47.4397 15.9411 47.733 15.712L52.1157 12.288L50.8844 10.712L46.5017 14.1359L46.4518 14.1749C46.2601 14.3246 46.0733 14.4705 45.9 14.6129C45.7267 14.4705 45.5399 14.3246 45.3482 14.1749L45.2983 14.1359L41.8619 11.4513L41.2844 10.712L41.1 10.856L40.9156 10.712L40.3381 11.4513L36.9017 14.1359L36.8518 14.1749L36.8518 14.1749C36.6601 14.3246 36.4733 14.4705 36.3 14.6129C36.1267 14.4705 35.9399 14.3246 35.7482 14.1749L35.7482 14.1749L35.6983 14.1359L32.2619 11.4512L31.6844 10.712L31.5 10.856L31.3157 10.712L30.7381 11.4512L27.3017 14.1359L27.2518 14.1749L27.2518 14.1749C27.0601 14.3246 26.8733 14.4705 26.7 14.6129C26.5267 14.4705 26.34 14.3247 26.1483 14.175L26.1483 14.1749L26.1482 14.1749L26.1482 14.1749L26.1482 14.1749L26.0983 14.1359L22.6619 11.4512L22.0844 10.712L21.9 10.856L21.7157 10.712L21.1381 11.4512L17.7017 14.1359L17.6518 14.1749L17.6518 14.1749C17.4601 14.3246 17.2733 14.4705 17.1 14.6129C16.9267 14.4705 16.7399 14.3246 16.5482 14.1749L16.5482 14.1749L16.5482 14.1749L16.5482 14.1749L16.5482 14.1749L16.4983 14.1359L12.1157 10.712L10.8844 12.288ZM44.742 16.251C44.578 16.1123 44.3603 15.9411 44.067 15.712L41.1 13.394L38.133 15.712C37.8397 15.9411 37.6221 16.1123 37.4581 16.2509C37.4695 16.3308 37.4757 16.4138 37.4757 16.5C37.4757 16.5862 37.4695 16.6692 37.4581 16.7491C37.6221 16.8877 37.8397 17.0589 38.133 17.288L40.4983 19.1359L40.5482 19.1749L40.5484 19.175C40.74 19.3247 40.9268 19.4705 41.1 19.6129C41.2733 19.4705 41.46 19.3247 41.6516 19.175L41.6518 19.1749L41.7017 19.1359L44.067 17.288C44.3603 17.0589 44.578 16.8877 44.742 16.749C44.7305 16.6692 44.7243 16.5862 44.7243 16.5C44.7243 16.4138 44.7305 16.3308 44.742 16.251ZM45.9 18.3871C45.7267 18.5295 45.5399 18.6754 45.3482 18.8251L45.2983 18.8641L42.933 20.712C42.6397 20.9411 42.4221 21.1123 42.2581 21.2509C42.2695 21.3308 42.2757 21.4138 42.2757 21.5C42.2757 21.5862 42.2695 21.6692 42.2581 21.7491C42.4221 21.8877 42.6397 22.0589 42.933 22.288L45.2983 24.1359L45.3482 24.1749L45.3482 24.1749L45.3483 24.175C45.54 24.3247 45.7267 24.4705 45.9 24.6129C46.0733 24.4705 46.2601 24.3246 46.4518 24.1749L46.4518 24.1749L46.5017 24.1359L48.867 22.288C49.3562 21.9059 49.635 21.6849 49.8053 21.5071L49.8121 21.5L49.8053 21.4929C49.635 21.3151 49.3562 21.0941 48.867 20.712L46.5017 18.8641L46.4518 18.8251C46.2601 18.6754 46.0733 18.5295 45.9 18.3871ZM44.742 26.251C44.578 26.1123 44.3603 25.9411 44.067 25.712L41.7017 23.8641L41.6518 23.8251L41.6518 23.8251L41.6517 23.825L41.6517 23.825C41.46 23.6753 41.2733 23.5295 41.1 23.3871C40.9267 23.5295 40.7399 23.6754 40.5482 23.8251L40.5482 23.8251L40.4983 23.8641L38.133 25.712C37.8397 25.9411 37.6221 26.1123 37.4581 26.2509C37.4695 26.3308 37.4757 26.4138 37.4757 26.5C37.4757 26.5862 37.4695 26.6692 37.4581 26.7491C37.6221 26.8877 37.8397 27.0589 38.133 27.288L40.4983 29.1359L40.5482 29.1749C40.7399 29.3246 40.9267 29.4705 41.1 29.6129C41.2733 29.4705 41.4601 29.3246 41.6518 29.1749L41.7017 29.1359L44.067 27.288C44.3603 27.0589 44.578 26.8877 44.742 26.749C44.7305 26.6692 44.7243 26.5862 44.7243 26.5C44.7243 26.4138 44.7305 26.3308 44.742 26.251ZM45.9 28.3871C45.7267 28.5295 45.5399 28.6754 45.3482 28.8251L45.2983 28.8641L42.933 30.712C42.6397 30.9411 42.4221 31.1123 42.2581 31.2509C42.2695 31.3308 42.2757 31.4138 42.2757 31.5C42.2757 31.5862 42.2695 31.6692 42.2581 31.7491C42.4221 31.8877 42.6397 32.0589 42.933 32.288L45.3482 34.1749C45.5399 34.3246 45.7267 34.4705 45.9 34.6129C46.0733 34.4705 46.2601 34.3246 46.4518 34.1749L48.867 32.288C49.3562 31.9059 49.635 31.6849 49.8053 31.5071L49.8121 31.5L49.8053 31.4929C49.635 31.3151 49.3562 31.0941 48.867 30.712L46.5017 28.8641L46.4519 28.8251C46.2601 28.6754 46.0733 28.5295 45.9 28.3871ZM44.742 36.251C44.578 36.1123 44.3603 35.9411 44.067 35.712L41.6519 33.8251L41.6518 33.8251C41.4601 33.6754 41.2733 33.5295 41.1 33.3871C40.9267 33.5295 40.7399 33.6754 40.5482 33.8251L40.5482 33.8251L38.133 35.712C37.8397 35.9411 37.6221 36.1123 37.4581 36.2509C37.4695 36.3308 37.4757 36.4138 37.4757 36.5C37.4757 36.5862 37.4695 36.6692 37.4581 36.7491C37.6221 36.8877 37.8397 37.0589 38.133 37.288L40.5482 39.1749L40.5484 39.175C40.74 39.3247 40.9268 39.4705 41.1 39.6129C41.2733 39.4705 41.46 39.3247 41.6516 39.175L41.6518 39.1749L44.067 37.288C44.3603 37.0589 44.578 36.8877 44.742 36.749C44.7305 36.6692 44.7243 36.5862 44.7243 36.5C44.7243 36.4138 44.7305 36.3308 44.742 36.251ZM45.9 38.3871C45.7267 38.5295 45.5399 38.6754 45.3482 38.8251L42.933 40.712C42.6397 40.9411 42.4221 41.1123 42.2581 41.2509C42.2695 41.3308 42.2757 41.4138 42.2757 41.5C42.2757 41.5862 42.2695 41.6692 42.2581 41.7491C42.4221 41.8877 42.6397 42.0589 42.933 42.288L45.3481 44.1748C45.5398 44.3246 45.7267 44.4705 45.9 44.6129C46.0733 44.4705 46.2602 44.3246 46.4519 44.1748L48.867 42.288C49.3562 41.9059 49.635 41.6849 49.8053 41.5071L49.8121 41.5L49.8053 41.4929C49.635 41.3151 49.3562 41.0941 48.867 40.712L46.4519 38.8251C46.2601 38.6754 46.0733 38.5295 45.9 38.3871ZM44.742 46.251C44.578 46.1123 44.3603 45.9411 44.067 45.712L41.6518 43.8251C41.4601 43.6754 41.2733 43.5295 41.1 43.3871C40.9267 43.5295 40.7399 43.6754 40.5482 43.8251L38.133 45.712C37.8397 45.9411 37.6221 46.1123 37.4581 46.2509C37.4695 46.3308 37.4757 46.4138 37.4757 46.5C37.4757 46.5862 37.4695 46.6692 37.4581 46.7491C37.6221 46.8877 37.8397 47.0589 38.133 47.288L41.1 49.606L44.067 47.288C44.3603 47.0589 44.578 46.8877 44.742 46.749C44.7305 46.6692 44.7243 46.5862 44.7243 46.5C44.7243 46.4138 44.7305 46.3308 44.742 46.251ZM35.1243 46.5C35.1243 46.4138 35.1305 46.3308 35.142 46.2509C34.978 46.1123 34.7603 45.9411 34.467 45.712L32.0518 43.8251C31.8601 43.6754 31.6733 43.5295 31.5 43.3871C31.3267 43.5295 31.1399 43.6754 30.9482 43.8251L28.533 45.712C28.2397 45.9411 28.0221 46.1123 27.8581 46.2509C27.8695 46.3308 27.8757 46.4138 27.8757 46.5C27.8757 46.5862 27.8695 46.6692 27.8581 46.7491C28.0221 46.8877 28.2397 47.0589 28.533 47.288L31.5 49.606L34.467 47.288C34.7603 47.0589 34.978 46.8877 35.142 46.7491C35.1305 46.6692 35.1243 46.5862 35.1243 46.5ZM39.267 42.288C39.5603 42.0589 39.7779 41.8877 39.9419 41.7491C39.9305 41.6692 39.9243 41.5862 39.9243 41.5C39.9243 41.4138 39.9305 41.3308 39.9419 41.2509C39.7779 41.1123 39.5603 40.9411 39.267 40.712L36.8519 38.8251L36.8518 38.8251C36.6601 38.6754 36.4733 38.5295 36.3 38.3871C36.1267 38.5295 35.9399 38.6754 35.7482 38.8251L35.7482 38.8251L33.333 40.712C33.0397 40.9411 32.8221 41.1123 32.6581 41.251C32.6695 41.3308 32.6757 41.4138 32.6757 41.5C32.6757 41.5862 32.6695 41.6692 32.6581 41.749C32.8221 41.8877 33.0397 42.0589 33.333 42.288L35.7481 44.1748L35.7482 44.1749C35.9399 44.3246 36.1267 44.4705 36.3 44.6129C36.4733 44.4705 36.6601 44.3246 36.8518 44.1749L36.8519 44.1748L39.267 42.288ZM36.8517 34.175C36.6601 34.3247 36.4733 34.4705 36.3 34.6129C36.1267 34.4705 35.94 34.3247 35.7483 34.175L35.7482 34.1749L33.333 32.288C33.0397 32.0589 32.8221 31.8877 32.6581 31.749C32.6695 31.6692 32.6757 31.5862 32.6757 31.5C32.6757 31.4138 32.6695 31.3308 32.6581 31.251C32.8221 31.1123 33.0397 30.9411 33.333 30.712L35.6983 28.8641L35.7482 28.8251L35.7482 28.8251C35.9399 28.6754 36.1267 28.5295 36.3 28.3871C36.4733 28.5295 36.6601 28.6754 36.8518 28.8251L36.8519 28.8251L36.9017 28.8641L39.267 30.712C39.5603 30.9411 39.7779 31.1123 39.9419 31.2509C39.9305 31.3308 39.9243 31.4138 39.9243 31.5C39.9243 31.5862 39.9305 31.6692 39.9419 31.7491C39.7779 31.8877 39.5603 32.0589 39.267 32.288L36.8518 34.1749L36.8517 34.175ZM35.1243 26.5C35.1243 26.4138 35.1305 26.3308 35.142 26.2509C34.978 26.1123 34.7603 25.9411 34.467 25.712L32.1017 23.8641L32.0518 23.8251L32.0518 23.8251L32.0517 23.825L32.0517 23.825C31.86 23.6753 31.6733 23.5295 31.5 23.3871C31.3267 23.5295 31.1399 23.6754 30.9482 23.8251L30.9482 23.8251L30.8983 23.8641L28.533 25.712C28.2397 25.9411 28.0221 26.1123 27.8581 26.2509C27.8695 26.3308 27.8757 26.4138 27.8757 26.5C27.8757 26.5862 27.8695 26.6692 27.8581 26.7491C28.0221 26.8877 28.2397 27.0589 28.533 27.288L30.8983 29.1359L30.9482 29.1749C31.1399 29.3246 31.3267 29.4705 31.5 29.6129C31.6733 29.4705 31.8601 29.3246 32.0518 29.1749L32.1017 29.1359L34.467 27.288C34.7603 27.0589 34.978 26.8877 35.142 26.7491C35.1305 26.6692 35.1243 26.5862 35.1243 26.5ZM39.267 22.288C39.5603 22.0589 39.7779 21.8877 39.9419 21.7491C39.9305 21.6692 39.9243 21.5862 39.9243 21.5C39.9243 21.4138 39.9305 21.3308 39.9419 21.2509C39.7779 21.1123 39.5603 20.9411 39.267 20.712L36.9017 18.8641L36.8518 18.8251C36.6601 18.6754 36.4733 18.5295 36.3 18.3871C36.1267 18.5295 35.9399 18.6754 35.7482 18.8251L35.6983 18.8641L33.333 20.712C33.0397 20.9411 32.8221 21.1123 32.6581 21.251C32.6695 21.3308 32.6757 21.4138 32.6757 21.5C32.6757 21.5862 32.6695 21.6692 32.6581 21.749C32.8221 21.8877 33.0397 22.0589 33.333 22.288L35.6983 24.1359L35.7482 24.1749C35.9399 24.3246 36.1267 24.4705 36.3 24.6129C36.4733 24.4705 36.6601 24.3246 36.8518 24.1749L36.9017 24.1359L39.267 22.288ZM35.1243 16.5C35.1243 16.4138 35.1305 16.3308 35.142 16.2509C34.978 16.1123 34.7603 15.9411 34.467 15.712L31.5 13.394L28.533 15.712C28.2397 15.9411 28.0221 16.1123 27.8581 16.2509C27.8695 16.3308 27.8757 16.4138 27.8757 16.5C27.8757 16.5862 27.8695 16.6692 27.8581 16.7491C28.0221 16.8877 28.2397 17.0589 28.533 17.288L30.8983 19.1359L30.9482 19.1749C31.1399 19.3246 31.3267 19.4705 31.5 19.6129C31.6733 19.4705 31.8601 19.3246 32.0518 19.1749L32.1017 19.1359L34.467 17.288C34.7603 17.0589 34.978 16.8877 35.142 16.7491C35.1305 16.6692 35.1243 16.5862 35.1243 16.5ZM35.1243 36.5C35.1243 36.4138 35.1305 36.3308 35.142 36.2509C34.978 36.1123 34.7603 35.9411 34.467 35.712L32.0519 33.8251L32.0518 33.8251L32.0516 33.8249C31.86 33.6753 31.6733 33.5294 31.5 33.3871C31.3268 33.5294 31.1401 33.6753 30.9484 33.8249L30.9482 33.8251L30.9482 33.8251L28.533 35.712C28.2397 35.9411 28.0221 36.1123 27.8581 36.2509C27.8695 36.3308 27.8757 36.4138 27.8757 36.5C27.8757 36.5862 27.8695 36.6692 27.8581 36.7491C28.0221 36.8877 28.2397 37.0589 28.533 37.288L30.9482 39.1749L30.9483 39.175C31.14 39.3247 31.3267 39.4705 31.5 39.6129C31.6733 39.4705 31.8601 39.3247 32.0518 39.175L32.0518 39.1749L34.467 37.288C34.7603 37.0589 34.978 36.8877 35.142 36.7491C35.1305 36.6692 35.1243 36.5862 35.1243 36.5ZM25.542 16.2509C25.5305 16.3308 25.5243 16.4138 25.5243 16.5C25.5243 16.5862 25.5305 16.6692 25.542 16.7491C25.378 16.8877 25.1603 17.0589 24.867 17.288L22.5017 19.1359L22.4518 19.1749C22.2601 19.3246 22.0733 19.4705 21.9 19.6129C21.7267 19.4705 21.5399 19.3246 21.3482 19.1749L21.2983 19.1359L18.933 17.288C18.6397 17.0589 18.4221 16.8877 18.2581 16.7491C18.2695 16.6692 18.2757 16.5862 18.2757 16.5C18.2757 16.4138 18.2695 16.3308 18.2581 16.2509C18.4221 16.1123 18.6397 15.9411 18.933 15.712L21.9 13.394L24.867 15.712C25.1603 15.9411 25.378 16.1123 25.542 16.2509ZM26.7 18.3871C26.8733 18.5295 27.0601 18.6754 27.2518 18.8251L27.3017 18.8641L29.667 20.712C29.9603 20.9411 30.178 21.1123 30.342 21.251C30.3305 21.3308 30.3243 21.4138 30.3243 21.5C30.3243 21.5862 30.3305 21.6692 30.342 21.749C30.178 21.8877 29.9603 22.0589 29.667 22.288L27.3017 24.1359L27.2518 24.1749C27.0601 24.3246 26.8733 24.4705 26.7 24.6129C26.5267 24.4705 26.3399 24.3246 26.1482 24.1749L26.0983 24.1359L23.733 22.288C23.4397 22.0589 23.2221 21.8877 23.0581 21.749C23.0695 21.6692 23.0757 21.5862 23.0757 21.5C23.0757 21.4138 23.0695 21.3308 23.0581 21.251C23.2221 21.1123 23.4397 20.9411 23.733 20.712L26.0983 18.8641L26.1482 18.8251C26.3399 18.6754 26.5267 18.5295 26.7 18.3871ZM25.542 26.2509C25.5305 26.3308 25.5243 26.4138 25.5243 26.5C25.5243 26.5862 25.5305 26.6692 25.542 26.7491C25.378 26.8877 25.1603 27.0589 24.867 27.288L22.5017 29.1359L22.4518 29.1749C22.2601 29.3246 22.0733 29.4705 21.9 29.6129C21.7267 29.4705 21.5399 29.3246 21.3482 29.1749L21.2983 29.1359L18.933 27.288C18.6397 27.0589 18.4221 26.8877 18.2581 26.7491C18.2695 26.6692 18.2757 26.5862 18.2757 26.5C18.2757 26.4138 18.2695 26.3308 18.2581 26.2509C18.4221 26.1123 18.6397 25.9411 18.933 25.712L21.2983 23.8641L21.3482 23.8251C21.5399 23.6754 21.7267 23.5295 21.9 23.3871C22.0733 23.5295 22.2601 23.6754 22.4518 23.8251L22.5017 23.8641L24.867 25.712C25.1603 25.9411 25.378 26.1123 25.542 26.2509ZM26.7 28.3871C26.8733 28.5295 27.0601 28.6754 27.2518 28.8251L27.2519 28.8251L27.3017 28.8641L29.667 30.712C29.9603 30.9411 30.178 31.1123 30.342 31.251C30.3305 31.3308 30.3243 31.4138 30.3243 31.5C30.3243 31.5862 30.3305 31.6692 30.342 31.749C30.178 31.8877 29.9603 32.0589 29.667 32.288L27.2518 34.1749C27.0601 34.3246 26.8733 34.4705 26.7 34.6129C26.5268 34.4706 26.3402 34.3248 26.1486 34.1752L26.1483 34.175L26.1482 34.1749L23.733 32.288C23.4397 32.0589 23.2221 31.8877 23.0581 31.749C23.0695 31.6692 23.0757 31.5862 23.0757 31.5C23.0757 31.4138 23.0695 31.3308 23.0581 31.251C23.2221 31.1123 23.4397 30.9411 23.733 30.712L26.0983 28.8641L26.1482 28.8251L26.1482 28.8251C26.3399 28.6754 26.5267 28.5295 26.7 28.3871ZM25.542 36.2509C25.5305 36.3308 25.5243 36.4138 25.5243 36.5C25.5243 36.5862 25.5305 36.6692 25.542 36.7491C25.378 36.8877 25.1603 37.0589 24.867 37.288L22.4518 39.1749C22.2601 39.3246 22.0733 39.4705 21.9 39.6129C21.7267 39.4705 21.5399 39.3246 21.3482 39.1749L18.933 37.288C18.6397 37.0589 18.4221 36.8877 18.2581 36.7491C18.2695 36.6692 18.2757 36.5862 18.2757 36.5C18.2757 36.4138 18.2695 36.3308 18.2581 36.2509C18.4221 36.1123 18.6397 35.9411 18.933 35.712L21.3481 33.8251L21.3482 33.8251C21.5399 33.6754 21.7267 33.5295 21.9 33.3871C22.0733 33.5295 22.2601 33.6754 22.4519 33.8251L22.4519 33.8251L24.867 35.712C25.1603 35.9411 25.378 36.1123 25.542 36.2509ZM26.7 38.3871C26.8733 38.5295 27.0601 38.6754 27.2518 38.8251L27.2519 38.8251L29.667 40.712C29.9603 40.9411 30.178 41.1123 30.342 41.251C30.3305 41.3308 30.3243 41.4138 30.3243 41.5C30.3243 41.5862 30.3305 41.6692 30.342 41.749C30.178 41.8877 29.9603 42.0589 29.667 42.288L27.2519 44.1748C27.0602 44.3246 26.8733 44.4705 26.7 44.6129C26.5267 44.4705 26.3399 44.3246 26.1481 44.1748L23.733 42.288C23.4397 42.0589 23.2221 41.8877 23.0581 41.749C23.0695 41.6692 23.0757 41.5862 23.0757 41.5C23.0757 41.4138 23.0695 41.3308 23.0581 41.251C23.2221 41.1123 23.4397 40.9411 23.733 40.712L26.1482 38.8251L26.1482 38.8251C26.3399 38.6754 26.5267 38.5295 26.7 38.3871ZM25.542 46.2509C25.378 46.1123 25.1603 45.9411 24.867 45.712L22.4518 43.8251C22.2601 43.6754 22.0733 43.5295 21.9 43.3871C21.7267 43.5295 21.5399 43.6754 21.3482 43.8251L18.933 45.712C18.6397 45.9411 18.4221 46.1123 18.2581 46.2509C18.2695 46.3308 18.2757 46.4138 18.2757 46.5C18.2757 46.5862 18.2695 46.6692 18.2581 46.7491C18.4221 46.8877 18.6397 47.0589 18.933 47.288L21.9 49.606L24.867 47.288C25.1603 47.0589 25.378 46.8877 25.542 46.7491C25.5305 46.6692 25.5243 46.5862 25.5243 46.5C25.5243 46.4138 25.5305 46.3308 25.542 46.2509ZM16.5482 18.8251C16.7399 18.6754 16.9267 18.5295 17.1 18.3871C17.2733 18.5295 17.4601 18.6754 17.6518 18.8251L17.6518 18.8251L17.7017 18.8641L20.067 20.712C20.3603 20.9411 20.578 21.1123 20.742 21.251C20.7305 21.3308 20.7243 21.4138 20.7243 21.5C20.7243 21.5862 20.7305 21.6692 20.742 21.749C20.578 21.8877 20.3603 22.0589 20.067 22.288L17.7017 24.1359L17.6518 24.1749C17.4601 24.3246 17.2733 24.4705 17.1 24.6129C16.9267 24.4705 16.7399 24.3246 16.5482 24.1749L16.4983 24.1359L14.133 22.288C13.6438 21.9059 13.3651 21.6849 13.1947 21.5071L13.188 21.5L13.1947 21.4929C13.3651 21.3151 13.6438 21.0941 14.133 20.712L16.4983 18.8641L16.5482 18.8251L16.5482 18.8251ZM20.067 30.712C20.3603 30.9411 20.578 31.1123 20.742 31.251C20.7305 31.3308 20.7243 31.4138 20.7243 31.5C20.7243 31.5862 20.7305 31.6692 20.742 31.749C20.578 31.8877 20.3603 32.0589 20.067 32.288L17.6518 34.1749C17.4601 34.3246 17.2733 34.4705 17.1 34.6129C16.9268 34.4706 16.7402 34.3248 16.5486 34.1752L16.5483 34.175L16.5482 34.1749L14.133 32.288C13.6438 31.9059 13.3651 31.6849 13.1947 31.5071L13.188 31.5L13.1947 31.4929C13.3651 31.3151 13.6438 31.0941 14.133 30.712L16.4983 28.8641L16.5482 28.8251L16.5482 28.8251C16.7399 28.6754 16.9267 28.5295 17.1 28.3871C17.2733 28.5295 17.4601 28.6754 17.6518 28.8251L17.6518 28.8251L17.7017 28.8641L20.067 30.712ZM20.067 40.712C20.3603 40.9411 20.578 41.1123 20.742 41.251C20.7305 41.3308 20.7243 41.4138 20.7243 41.5C20.7243 41.5862 20.7305 41.6692 20.742 41.749C20.578 41.8877 20.3603 42.0589 20.067 42.288L17.6519 44.1748C17.4602 44.3246 17.2733 44.4705 17.1 44.6129C16.9267 44.4705 16.7399 44.3246 16.5481 44.1748L14.133 42.288C13.6438 41.9059 13.3651 41.6849 13.1947 41.5071L13.188 41.5L13.1947 41.4929C13.3651 41.3151 13.6438 41.0941 14.133 40.712L16.5482 38.8251L16.5482 38.8251C16.7399 38.6754 16.9267 38.5295 17.1 38.3871C17.2733 38.5295 17.4601 38.6754 17.6518 38.8251L17.6518 38.8251L20.067 40.712Z" fill="white"/>
<defs>
<linearGradient id="paint0_linear_33_1291" x1="31.5" y1="0" x2="31.5" y2="63" gradientUnits="userSpaceOnUse">
<stop stop-color="#9BEFBD"/>
<stop offset="1" stop-color="#50D820"/>
</linearGradient>
</defs>
</svg>
